NotoSerifKhitanSmallScript.glyphspackage
{
glyphname = three;
layers = (
{
layerId = master01;
shapes = (
{
closed = 1;
nodes = (
(362,-10,o),
(501,43,o),
(501,204,cs),
(501,336,o),
(390,373,o),
(316,381,c),
(408,403,o),
(476,475,o),
(476,565,cs),
(476,666,o),
(392,724,o),
(266,724,cs),
(137,724,o),
(70,667,o),
(70,590,cs),
(70,539,o),
(108,525,o),
(156,525,c),
(156,604,o),
(175,674,o),
(266,674,cs),
(343,674,o),
(373,628,o),
(373,550,cs),
(373,455,o),
(304,395,o),
(216,395,cs),
(184,395,l),
(184,344,l),
(216,344,ls),
(328,344,o),
(397,289,o),
(397,205,cs),
(397,85,o),
(327,44,o),
(248,44,cs),
(167,44,o),
(121,95,o),
(121,165,c),
(83,165,o),
(58,141,o),
(58,101,cs),
(58,42,o),
(115,-10,o),
(247,-10,cs)
);
}
);
width = 559;
}
);
unicode = 51;
}
{
glyphname = five;
layers = (
{
layerId = master01;
shapes = (
{
closed = 1;
nodes = (
(397,-10,o),
(486,82,o),
(486,218,cs),
(486,359,o),
(387,429,o),
(258,429,cs),
(199,429,o),
(161,420,o),
(141,413,c),
(160,634,l),
(354,634,ls),
(396,634,o),
(404,621,o),
(408,593,cs),
(412,563,l),
(454,563,l),
(449,714,l),
(115,714,l),
(83,359,l),
(107,352,l),
(132,363,o),
(161,374,o),
(230,374,cs),
(322,374,o),
(382,323,o),
(382,218,cs),
(382,91,o),
(321,49,o),
(239,49,cs),
(158,49,o),
(118,93,o),
(118,150,c),
(75,150,o),
(55,128,o),
(55,91,cs),
(55,46,o),
(96,-10,o),
(244,-10,cs)
);
}
);
width = 559;
}
);
unicode = 53;
}
{
glyphname = seven;
layers = (
{
layerId = master01;
shapes = (
{
closed = 1;
nodes = (
(265,0,l),
(511,685,l),
(511,714,l),
(64,714,l),
(59,533,l),
(101,533,l),
(105,583,ls),
(108,616,o),
(127,634,o),
(163,634,cs),
(426,634,l),
(190,0,l),
(190,0,l)
);
}
);
width = 559;
}
);
unicode = 55;
}
{
glyphname = uni5951;
layers = (
{
layerId = master01;
shapes = (
{
closed = 1;
nodes = (
(625.333,605,o),
(593,601,o),
(565,593,c),
(502,644,l),
(508,656,l),
(531.333,651.333,o),
(554.667,649,o),
(578,649,cs),
(631.333,649,o),
(703,657.333,o),
(751,668,cs),
(777.667,674,o),
(800,686,o),
(818,704,cs),
(820.667,706.667,o),
(823.333,706.667,o),
(826,704,cs),
(883,647,ls),
(885.667,644.333,o),
(885.333,641.333,o),
(882,638,cs),
(858,617,ls),
(848.667,609,o),
(849.333,609.333,o),
(848,600,cs),
(830.667,446.667,o),
(819.333,376.667,o),
(794,314,cs),
(780.667,281.333,o),
(767,258.667,o),
(753,246,c),
(747.667,239.333,o),
(743.333,239.333,o),
(740,246,cs),
(712,290,o),
(682.667,325,o),
(632,373,c),
(645,390,l),
(728,342,l),
(731.333,339.333,o),
(734.333,338,o),
(737,338,cs),
(739.667,338,o),
(742.333,341.667,o),
(745,349,cs),
(769,410.333,o),
(785,512,o),
(789,612,cs),
(789,620,o),
(786,623.667,o),
(780,623,cs),
(660,609,l),
(660,609,l)
);
},
{
closed = 1;
nodes = (
(691,566,l),
(679.667,544,o),
(666.333,515.667,o),
(651,481,cs),
(617.667,409.667,o),
(571.333,342.667,o),
(512,280,c),
(493,296,l),
(549,368,o),
(591,460.333,o),
(607,523,cs),
(615.667,555.667,o),
(620,583.333,o),
(620,606,cs),
(620,614,o),
(619.667,619.333,o),
(619,622,c),
(631,633,l),
(631,633,l)
);
},
{
closed = 1;
nodes = (
(254.667,-84.667,o),
(383,-1.667,o),
(439,157,cs),
(447.667,181,o),
(452,205.667,o),
(452,231,cs),
(452,255.667,o),
(448.333,276.333,o),
(441,293,c),
(454,301,l),
(538,222,l),
(530.667,208.667,o),
(521,187.333,o),
(509,158,cs),
(498.333,131.333,o),
(488.333,109.333,o),
(479,92,cs),
(405.667,-45.333,o),
(274.333,-121.333,o),
(85,-168,c),
(76,-142,l),
(76,-142,l)
);
},
{
closed = 1;
nodes = (
(230.333,106.667,o),
(189.333,100.333,o),
(148,91,c),
(70,145,l),
(75,158,l),
(105,156,o),
(132.333,155,o),
(157,155,cs),
(184.333,155,o),
(210.333,156,o),
(235,158,cs),
(329,165,ls),
(370.333,167.667,o),
(535.333,178.667,o),
(698,196,cs),
(767.333,204,o),
(796,208.333,o),
(828,227,cs),
(830.667,228.333,o),
(833.667,228,o),
(837,226,cs),
(930,177,l),
(927,162,l),
(739.667,150,o),
(521,132.667,o),
(271,110,cs)
);
},
{
closed = 1;
nodes = (
(213,559.667,o),
(183.333,554.667,o),
(158,548,c),
(94,591,l),
(98,603,l),
(122,600.333,o),
(145.333,599,o),
(168,599,cs),
(181.333,599,o),
(196.667,599.667,o),
(214,601,cs),
(267.333,605.667,o),
(307.333,610.333,o),
(334,615,cs),
(356,619,o),
(376.333,626.333,o),
(395,637,cs),
(398.333,638.333,o),
(401,638.333,o),
(403,637,c),
(484,602,l),
(481,586,l),
(426.333,582,o),
(348.333,574.333,o),
(247,563,cs)
);
},
{
closed = 1;
nodes = (
(266,452.667,o),
(228.667,447,o),
(198,439,c),
(133,482,l),
(138,494,l),
(162,491.333,o),
(185,490,o),
(207,490,cs),
(220.333,490,o),
(235.667,490.667,o),
(253,492,cs),
(273.667,492.667,o),
(302,496.333,o),
(338,503,cs),
(363.333,507,o),
(376,512.667,o),
(392,522,cs),
(395.333,523.333,o),
(398,523.333,o),
(400,522,c),
(481,489,l),
(478,473,l),
(419.333,469,o),
(322,459.333,o),
(274,454,cs)
);
},
{
closed = 1;
nodes = (
(206.333,333.667,o),
(177,328.667,o),
(151,322,c),
(86,365,l),
(91,377,l),
(115,374.333,o),
(138.333,373,o),
(161,373,cs),
(173.667,373,o),
(188.667,373.667,o),
(206,375,cs),
(276.667,381,o),
(327.667,387,o),
(359,393,cs),
(379,396.333,o),
(399.667,403.667,o),
(421,415,cs),
(424.333,416.333,o),
(427.333,416.333,o),
(430,415,cs),
(509,380,l),
(506,364,l),
(427.333,358.667,o),
(303,345,o),
(239,337,cs)
);
},
{
closed = 1;
nodes = (
(338,661,o),
(335,626.667,o),
(335,584,cs),
(335,213,l),
(322,207,l),
(267,272,ls),
(265,274,o),
(265,277,o),
(267,281,cs),
(277,302.333,o),
(282,324,o),
(282,346,cs),
(282.667,371.333,o),
(283,408.667,o),
(283,458,cs),
(283,496.667,o),
(282.333,556.667,o),
(281,638,cs),
(279.667,678,o),
(268,724,o),
(240,756,c),
(252,768,l),
(344,687,l),
(344,687,l)
);
},
{
closed = 1;
nodes = (
(497,159,o),
(519,140,o),
(575,92,cs),
(627.667,46,o),
(665.333,14,o),
(688,-4,cs),
(762.667,-64,o),
(835,-93.667,o),
(935,-107,c),
(934,-132,l),
(754,-149,l),
(751,-149,ls),
(746.333,-149,o),
(742,-147,o),
(738,-143,cs),
(643.333,-37.667,o),
(575.667,33.333,o),
(481,124,c),
(509,149,l),
(509,149,l)
);
}
);
width = 1000;
}
);
unicode = 22865;
}
{
glyphname = uni5B57;
layers = (
{
layerId = master01;
shapes = (
{
closed = 1;
nodes = (
(204.333,481,o),
(184,429.667,o),
(152,379,c),
(136,378,l),
(95,455,l),
(93,460,l),
(93,463.333,o),
(95,466.333,o),
(99,469,cs),
(136.333,498.333,o),
(159.667,530.333,o),
(169,589,cs),
(170.333,599.667,o),
(171,607.667,o),
(171,613,cs),
(171,624.333,o),
(169,638.667,o),
(165,656,c),
(184,662,l),
(205.333,631.333,o),
(216,599,o),
(216,565,cs),
(216,555.667,o),
(215,545,o),
(213,533,cs)
);
},
{
closed = 1;
nodes = (
(394,381.333,o),
(361.333,374.667,o),
(330,366,c),
(251,424,l),
(257,436,l),
(287,432,o),
(314,430,o),
(338,430,cs),
(358,430,o),
(379,431,o),
(401,433,cs),
(489,439.667,o),
(545,448,o),
(605,456,cs),
(637,460,o),
(662.667,468.667,o),
(696,498,c),
(699.333,500,o),
(702,499.667,o),
(704,497,cs),
(759,431,ls),
(763,427,o),
(762,423.333,o),
(758,422,cs),
(736.667,416.667,o),
(705.667,401,o),
(683,385,cs),
(628.333,346.333,o),
(566.333,295,o),
(529,255,c),
(506,270,l),
(626,405,ls),
(631.333,410.333,o),
(630.667,414.333,o),
(624,413,cs),
(581.333,407.667,o),
(527.333,400.333,o),
(462,391,cs),
(428,386,l),
(428,386,l)
);
},
{
closed = 1;
nodes = (
(480,731.667,o),
(527.667,702,o),
(559,678,cs),
(563,675.333,o),
(564.333,671.667,o),
(563,667,cs),
(545,582,ls),
(543,575.333,o),
(541,572,o),
(539,572,cs),
(536.333,572,o),
(533.667,574.667,o),
(531,580,cs),
(495.667,642.667,o),
(453,699.333,o),
(403,750,c),
(416,767,l),
(416,767,l)
);
},
{
closed = 1;
nodes = (
(553,224,o),
(551,212,o),
(551,188,cs),
(551,167.333,o),
(551.667,132.333,o),
(553,83,cs),
(554,-22,ls),
(554,-45.333,o),
(552.667,-64,o),
(550,-78,cs),
(543.333,-115.333,o),
(534,-130.667,o),
(514,-160,cs),
(510,-164.667,o),
(505.667,-165,o),
(501,-161,cs),
(445,-117,o),
(380.667,-76,o),
(308,-38,c),
(320,-14,l),
(468,-64,ls),
(469.333,-64.667,o),
(471.333,-65,o),
(474,-65,cs),
(480.667,-65,o),
(484.333,-61,o),
(485,-53,cs),
(488.333,-23,o),
(490,14,o),
(490,58,cs),
(490,110,o),
(487.333,157.667,o),
(486,175,cs),
(483.333,231,o),
(472,268.667,o),
(440,302,c),
(451,314,l),
(557,240,l),
(557,240,l)
);
},
{
closed = 1;
nodes = (
(335.667,594.333,o),
(632.667,621,o),
(766,637,cs),
(799.333,641,o),
(828.333,652.667,o),
(853,672,cs),
(856.333,674.667,o),
(859.333,674.667,o),
(862,672,cs),
(928,600,ls),
(932,596,o),
(931.667,593,o),
(927,591,c),
(890,568,ls),
(860.667,549.333,o),
(832.667,521.333,o),
(790,468,c),
(770,480,l),
(815,577,ls),
(820.333,587.667,o),
(820,591.333,o),
(812,590,cs),
(199,537,l),
(197,585,l),
(197,585,l)
);
},
{
closed = 1;
nodes = (
(206.667,118.333,o),
(165.667,112,o),
(131,104,c),
(53,158,l),
(58,171,l),
(88,169,o),
(115.333,168,o),
(140,168,cs),
(166.667,168,o),
(192.667,169,o),
(218,171,cs),
(324.667,179,o),
(460.667,191.667,o),
(626,209,cs),
(710,218,ls),
(779.333,226,o),
(808,230.333,o),
(840,249,cs),
(842.667,250.333,o),
(845.667,250,o),
(849,248,cs),
(942,201,l),
(939,186,l),
(717.667,169.333,o),
(489.333,148.333,o),
(254,123,cs)
);
}
);
width = 1000;
}
);
unicode = 23383;
}
{
glyphname = uni8C37;
layers = (
{
layerId = master01;
shapes = (
{
closed = 1;
nodes = (
(647,710,o),
(788.333,620.333,o),
(819,595,cs),
(823,591.667,o),
(825,585.667,o),
(825,577,cs),
(823,480,l),
(807,477,l),
(752.333,559.667,o),
(651.667,662,o),
(577,722,c),
(591,742,l),
(591,742,l)
);
},
{
closed = 1;
nodes = (
(554.667,487,o),
(590.667,456.667,o),
(608,442,cs),
(620.667,432,o),
(636.333,419.5,o),
(655,404.5,cs),
(673.667,389.5,o),
(697,371,o),
(725,349,cs),
(801,290.333,o),
(834,266.167,o),
(886,245.5,cs),
(912,235.167,o),
(942,228.333,o),
(976,225,c),
(976,203,l),
(827,185,l),
(818,185,ls),
(810.667,185,o),
(805.333,187,o),
(802,191,cs),
(711.333,287.667,o),
(612.333,382.333,o),
(505,475,c),
(528,507,l),
(528,507,l)
);
},
{
closed = 1;
nodes = (
(260.667,286,o),
(413,419.667,o),
(481,541,c),
(491.667,557,o),
(497,575.667,o),
(497,597,cs),
(497,605,o),
(496,613,o),
(494,621,c),
(509,626,l),
(567,519,l),
(563,515,o),
(549.333,499.667,o),
(526,473,cs),
(508,452.333,o),
(489,431.333,o),
(469,410,cs),
(365,306,o),
(222.333,207.333,o),
(41,114,c),
(24,140,l),
(24,140,l)
);
},
{
closed = 1;
nodes = (
(222.333,529,o),
(316.667,615.333,o),
(358,686,cs),
(368,702.667,o),
(373,719.333,o),
(373,736,cs),
(373,742.667,o),
(372.667,747.667,o),
(372,751,c),
(388,756,l),
(439,657,l),
(425.667,646.333,o),
(407,629.667,o),
(383,607,cs),
(364,589,ls),
(312,539.667,o),
(227.667,481,o),
(125,425,c),
(109,449,l),
(109,449,l)
);
},
{
closed = 1;
nodes = (
(416,201.667,o),
(589.333,223.667,o),
(616,229,cs),
(644.667,235,o),
(666.333,245.667,o),
(681,261,c),
(685,263.667,o),
(688.667,263.667,o),
(692,261,cs),
(742,218,l),
(745.333,216,o),
(745.333,213,o),
(742,209,cs),
(728,190,ls),
(724.667,185.333,o),
(722.333,180.333,o),
(721,175,cs),
(710.333,120.333,o),
(685.667,-18.333,o),
(683,-45,c),
(623,-54,l),
(637.667,44.667,o),
(648,147.667,o),
(648,169,cs),
(648,174.333,o),
(645.667,177,o),
(641,177,cs),
(611.667,175.667,o),
(417.667,151,o),
(323,139,c),
(324,191,l),
(324,191,l)
);
},
{
closed = 1;
nodes = (
(577,-25.333,o),
(607,-21.667,o),
(639,-3,cs),
(641.667,-1.667,o),
(644.667,-2,o),
(648,-4,cs),
(740,-57,l),
(737,-72,l),
(580.333,-80.667,o),
(440,-90,o),
(316,-100,c),
(317,-48,l),
(509,-32,l),
(509,-32,l)
);
},
{
closed = 1;
nodes = (
(354.667,159,o),
(352,124.333,o),
(352,79,cs),
(352,47,ls),
(352.667,25.667,o),
(353,-42.667,o),
(353,-158,c),
(340,-164,l),
(276,-97,ls),
(274,-95,o),
(274,-92,o),
(276,-88,cs),
(286,-67.333,o),
(291,-45.667,o),
(291,-23,cs),
(291,135,ls),
(289.667,173.667,o),
(275,223,o),
(247,255,c),
(257,267,l),
(360,183,l),
(360,183,l)
);
}
);
width = 1000;
}
);
unicode = 35895;
}
{
glyphname = u18B04;
layers = (
{
layerId = master01;
shapes = (
{
closed = 1;
nodes = (
(213.333,-107.333,o),
(171,-113.333,o),
(117,-122,c),
(37,-63,l),
(42,-50,l),
(80,-54.667,o),
(116,-57,o),
(150,-57,cs),
(162.667,-57,o),
(181.667,-56.333,o),
(207,-55,cs),
(401.667,-43,o),
(551,-32,o),
(719,-20,cs),
(791,-14.667,o),
(824.333,-8.667,o),
(859,10,cs),
(861,11.333,o),
(863.667,11,o),
(867,9,cs),
(963,-45,l),
(960,-59,l),
(683.333,-73,o),
(444.667,-88,o),
(244,-104,cs)
);
},
{
closed = 1;
nodes = (
(304,596.667,o),
(263.333,590.667,o),
(220,582,c),
(144,637,l),
(149,650,l),
(179.667,646.667,o),
(212.333,645,o),
(247,645,cs),
(260.333,645,o),
(280.333,645.667,o),
(307,647,cs),
(412.333,655.667,o),
(499.333,663,o),
(568,669,cs),
(612,673,ls),
(676,678.333,o),
(709,684.333,o),
(741,703,cs),
(743.667,704.333,o),
(745.667,704.5,o),
(747,703.5,cs),
(748.333,702.5,o),
(749.333,702,o),
(750,702,c),
(841,652,l),
(838,637,l),
(685.333,628.333,o),
(520,616,o),
(342,600,cs)
);
},
{
closed = 1;
nodes = (
(361.333,257.333,o),
(320.667,251,o),
(272,241,c),
(196,296,l),
(201,309,l),
(239.667,305.667,o),
(270.333,304,o),
(293,304,cs),
(315,304,o),
(337,305,o),
(359,307,cs),
(450.333,313.667,o),
(524,319.667,o),
(580,325,cs),
(644,330.333,o),
(677.333,336,o),
(708,356,c),
(711.333,357.333,o),
(714.333,357,o),
(717,355,c),
(809,306,l),
(806,291,l),
(669,281,ls),
(556.333,273,o),
(464.667,266,o),
(394,260,cs)
);
},
{
closed = 1;
nodes = (
(535,546.667,o),
(532,512.333,o),
(532,475,cs),
(532,-59,l),
(472,-66,l),
(472,239,ls),
(472,407,o),
(471.667,504.667,o),
(471,532,cs),
(469.667,562.667,o),
(460.333,598.667,o),
(443,628,c),
(467,639,l),
(541,578,l),
(541,578,l)
);
}
);
width = 1000;
}
);
unicode = 101124;
}
{
glyphname = u18B0F;
layers = (
{
layerId = master01;
shapes = (
{
closed = 1;
nodes = (
(556,203,l),
(540,189,o),
(521,169.667,o),
(499,145,cs),
(388.333,30.333,o),
(234.333,-85.333,o),
(53,-164,c),
(36,-134,l),
(263.955,-14.595,o),
(461.21,166.883,o),
(489,284,c),
(520,286,l),
(520,286,l)
);
},
{
closed = 1;
nodes = (
(800,-146,l),
(795,-146,ls),
(789,-146,o),
(784.667,-144.333,o),
(782,-141,cs),
(700,-49.667,o),
(597.667,48,o),
(475,152,c),
(504,187,l),
(582,121.667,o),
(653,63.667,o),
(717,13,cs),
(786.333,-43,o),
(833,-68.333,o),
(877,-83,cs),
(899,-90.333,o),
(927.333,-97.333,o),
(962,-104,c),
(961,-130,l),
(961,-130,l)
);
},
{
closed = 1;
nodes = (
(320.667,512.333,o),
(376.333,463.333,o),
(411,424,cs),
(413.667,421.333,o),
(415,418.333,o),
(415,415,cs),
(415,411.667,o),
(414,407.333,o),
(412,402,cs),
(387,329,l),
(372,331,l),
(338.667,403,o),
(279.333,498,o),
(226,554,c),
(244,571,l),
(244,571,l)
);
},
{
closed = 1;
nodes = (
(192,226.667,o),
(150.333,221,o),
(119,215,c),
(40,272,l),
(45,285,l),
(86.333,281.667,o),
(119,280,o),
(143,280,cs),
(157.667,280,o),
(179,280.667,o),
(207,282,cs),
(290,288,ls),
(436,298,o),
(583,309.333,o),
(731,322,cs),
(801.667,330,o),
(830,333.333,o),
(862,352,cs),
(864.667,353.333,o),
(867.667,353,o),
(871,351,cs),
(965,298,l),
(962,283,l),
(726.667,269,o),
(487.333,252,o),
(244,232,cs)
);
},
{
closed = 1;
nodes = (
(268.667,612.667,o),
(237.667,608,o),
(211,602,c),
(144,656,l),
(149,668,l),
(173,665.333,o),
(195.667,664,o),
(217,664,cs),
(230.333,664,o),
(248.333,664.667,o),
(271,666,cs),
(380.333,672.667,o),
(586.333,690,o),
(649,698,cs),
(678.333,702.667,o),
(704,710.333,o),
(726,721,cs),
(728.667,722.333,o),
(731.667,722,o),
(735,720,cs),
(818,675,l),
(815,658,l),
(752.333,654,o),
(418.667,626.667,o),
(304,616,cs)
);
},
{
closed = 1;
nodes = (
(566.333,373.667,o),
(637,463.333,o),
(661,526,cs),
(673,558,o),
(677.667,586,o),
(675,610,c),
(690,614,l),
(752,516,l),
(745.333,508,o),
(738.667,499.667,o),
(732,493,cs),
(698,454,ls),
(630,379.333,o),
(590.333,343,o),
(497,275,c),
(477,295,l),
(477,295,l)
);
}
);
width = 1000;
}
);
unicode = 101135;
}
{
glyphname = u18B1F;
layers = (
{
layerId = master01;
shapes = (
{
closed = 1;
nodes = (
(829,347.667,o),
(828.333,253.333,o),
(827,128,cs),
(826,-148,l),
(814,-154,l),
(750,-86,ls),
(749.333,-85.333,o),
(749.167,-84,o),
(749.5,-82,cs),
(749.833,-80,o),
(750,-78.333,o),
(750,-77,c),
(758,-59,o),
(762.667,-37.333,o),
(764,-12,cs),
(767.333,71.333,o),
(769,188.333,o),
(769,339,cs),
(769,403,ls),
(769,420.333,o),
(768,424.333,o),
(756,423,cs),
(739.333,421.667,o),
(722,419.833,o),
(704,417.5,cs),
(686,415.167,o),
(669.667,413.333,o),
(655,412,cs),
(631,409,ls),
(599,405.667,o),
(565.667,399.667,o),
(531,391,c),
(454,447,l),
(459,460,l),
(490.333,456,o),
(520,454,o),
(548,454,cs),
(569.333,454,o),
(590,455,o),
(610,457,cs),
(656,460.333,o),
(689,464.333,o),
(709,469,cs),
(749,478.333,o),
(770.333,486.333,o),
(793,509,cs),
(796.333,512.333,o),
(800,512.333,o),
(804,509,cs),
(855,465,l),
(858.333,463,o),
(858.333,460,o),
(855,456,cs),
(836,432,ls),
(831.333,426.667,o),
(829,419.667,o),
(829,411,cs)
);
},
{
closed = 1;
nodes = (
(266.667,39.333,o),
(225.667,33,o),
(175,23,c),
(99,77,l),
(104,90,l),
(134.667,86.667,o),
(167.333,85,o),
(202,85,cs),
(215.333,85,o),
(235.333,85.667,o),
(262,87,cs),
(360.667,94.333,o),
(433,100.333,o),
(479,105,cs),
(540.835,111.871,o),
(571.613,112.883,o),
(607,135,cs),
(610.333,137,o),
(613.333,137,o),
(616,135,c),
(707,87,l),
(704,72,l),
(632,68.667,o),
(558.667,63.833,o),
(484,57.5,cs),
(409.333,51.167,o),
(362,47.333,o),
(342,46,cs),
(298,42,l),
(298,42,l)
);
},
{
closed = 1;
nodes = (
(310.333,195.667,o),
(278.333,190.333,o),
(247,183,c),
(176,234,l),
(181,247,l),
(207.667,244.333,o),
(233.333,243,o),
(258,243,cs),
(271.333,243,o),
(288,243.667,o),
(308,245,cs),
(404,249.667,o),
(469,254.667,o),
(503,260,cs),
(525,263.333,o),
(541,267.333,o),
(551,272,cs),
(561,276.667,o),
(567.333,279.667,o),
(570,281,cs),
(572.667,282.333,o),
(575.667,282.333,o),
(579,281,cs),
(665,239,l),
(662,221,l),
(563.333,215.667,o),
(391,204.333,o),
(343,199,cs)
);
},
{
closed = 1;
nodes = (
(243.333,590.333,o),
(201.667,584.333,o),
(163,577,c),
(84,635,l),
(89,648,l),
(120.333,644.667,o),
(154,643,o),
(190,643,cs),
(217.333,643,o),
(237.667,643.333,o),
(251,644,cs),
(459,659,ls),
(582.333,668.333,o),
(665.667,675,o),
(709,679,cs),
(769,684.333,o),
(805.667,692.667,o),
(839,710,cs),
(841.667,711.333,o),
(844.667,711,o),
(848,709,cs),
(942,656,l),
(939,642,l),
(733.667,630,o),
(516.667,614.333,o),
(288,595,cs)
);
},
{
closed = 1;
nodes = (
(512,529.333,o),
(489,511,o),
(461,487,cs),
(356.333,395.667,o),
(219.667,322.667,o),
(51,268,c),
(40,298,l),
(220,368.667,o),
(348,453,o),
(424,551,cs),
(446.667,579.667,o),
(462,608.333,o),
(470,637,c),
(496,639,l),
(530,542,l),
(530,542,l)
);
},
{
closed = 1;
nodes = (
(433,357,o),
(430,322.667,o),
(430,280,cs),
(428,129.333,o),
(426.667,-11.333,o),
(426,-142,c),
(414,-149,l),
(355,-80,ls),
(352.333,-77.333,o),
(352.333,-74.333,o),
(355,-71,c),
(364.333,-53,o),
(369.333,-32.667,o),
(370,-10,cs),
(372,37.333,o),
(373,97.667,o),
(373,171,cs),
(373,217.667,o),
(372.333,273,o),
(371,337,cs),
(369.667,374.333,o),
(361.333,407,o),
(346,435,c),
(365,448,l),
(439,383,l),
(439,383,l)
);
}
);
width = 1000;
}
);
unicode = 101151;
}
{
glyphname = u18B22;
layers = (
{
layerId = master01;
shapes = (
{
closed = 1;
nodes = (
(472,579,l),
(463.333,568.333,o),
(454.667,555,o),
(446,539,cs),
(400.667,461.667,o),
(366,410.667,o),
(314,352,c),
(292,366,l),
(336,439.333,o),
(359,492.333,o),
(379,559,cs),
(387.667,586.333,o),
(392,610,o),
(392,630,cs),
(392,638.667,o),
(391,647,o),
(389,655,c),
(410,664,l),
(410,664,l)
);
},
{
closed = 1;
nodes = (
(216.333,608.333,o),
(174.667,602.333,o),
(136,595,c),
(57,653,l),
(62,666,l),
(90,662.667,o),
(120.667,661,o),
(154,661,cs),
(170,661,o),
(193.333,661.667,o),
(224,663,cs),
(265.333,666.333,o),
(309.167,669.5,o),
(355.5,672.5,cs),
(401.833,675.5,o),
(437,678,o),
(461,680,cs),
(541,684,o),
(624.667,690,o),
(712,698,cs),
(774.667,703.333,o),
(808.667,710.667,o),
(842,728,cs),
(844.667,729.333,o),
(847.667,729,o),
(851,727,cs),
(945,674,l),
(942,660,l),
(702,646.667,o),
(475,631,o),
(261,613,cs)
);
},
{
closed = 1;
nodes = (
(211.667,348,o),
(209,313.667,o),
(209,273,cs),
(209,-133,l),
(195,-139,l),
(132,-71,ls),
(130,-69,o),
(130,-66,o),
(132,-62,cs),
(142,-41.333,o),
(147,-19.667,o),
(147,3,cs),
(148.333,73.667,o),
(149,127.333,o),
(149,164,cs),
(149,202,o),
(148.333,255,o),
(147,323,cs),
(145.667,363,o),
(132,417,o),
(104,449,c),
(116,460,l),
(217,376,l),
(217,376,l)
);
},
{
closed = 1;
nodes = (
(589,216.667,o),
(587.667,380,o),
(585,454,cs),
(583.667,494,o),
(572,542,o),
(544,574,c),
(554,586,l),
(657,500,l),
(650.333,471.333,o),
(647,437,o),
(647,397,cs),
(647,-29,l),
(589,-36,l),
(589,-36,l)
);
},
{
closed = 1;
nodes = (
(367,-51,l),
(365,372,l),
(425,376,l),
(425,-44,l),
(425,-44,l)
);
},
{
closed = 1;
nodes = (
(394,391,o),
(679.333,413,o),
(722,421,cs),
(766,429.667,o),
(801.667,445.333,o),
(829,468,cs),
(832.333,471.333,o),
(835.333,471.333,o),
(838,468,cs),
(901,403,l),
(903.667,401,o),
(903.667,398.667,o),
(901,396,cs),
(876,374,ls),
(869.333,368,o),
(866,362.333,o),
(866,357,cs),
(866,236.333,o),
(864.5,148.333,o),
(861.5,93,cs),
(858.5,37.667,o),
(853,-11.333,o),
(845,-54,cs),
(838.333,-86,o),
(826.667,-122.333,o),
(816,-137,cs),
(812,-142.333,o),
(808.667,-143,o),
(806,-139,cs),
(738,-17,l),
(784,-25,l),
(792,5.667,o),
(797,50.833,o),
(799,110.5,cs),
(801,170.167,o),
(802,255,o),
(802,365,cs),
(802,372.333,o),
(798.667,375.667,o),
(792,375,cs),
(710,367,o),
(583,356.667,o),
(411,344,cs),
(311,336.667,o),
(238.333,331,o),
(193,327,c),
(202,379,l),
(202,379,l)
);
},
{
closed = 1;
nodes = (
(697.333,-54.667,o),
(545,-63.333,o),
(351,-76,cs),
(305.667,-78.667,o),
(254,-82,o),
(194,-86,c),
(195,-35,l),
(340.333,-27,o),
(470.333,-18.333,o),
(613,-9,cs),
(683.667,-2.333,o),
(711,1,o),
(743,17,c),
(743.667,17,o),
(745,17.167,o),
(747,17.5,cs),
(749,17.833,o),
(750.667,17.333,o),
(752,16,c),
(820,-22,l),
(808,-50,l),
(808,-50,l)
);
}
);
width = 1000;
}
);
unicode = 101154;
}
{
glyphname = u18B26;
layers = (
{
layerId = master01;
shapes = (
{
closed = 1;
nodes = (
(460.667,406.333,o),
(514.5,216.167,o),
(628.5,75.5,cs),
(685.5,5.167,o),
(757,-44,o),
(843,-72,cs),
(849,-74,o),
(853.667,-75,o),
(857,-75,cs),
(862.333,-75,o),
(863,-71,o),
(863,-67,cs),
(867,125,l),
(891,126,l),
(900.333,20.667,o),
(920.667,-86,o),
(942,-142,cs),
(943,-145,l),
(943,-149,o),
(939.667,-151.667,o),
(933,-153,c),
(915,-154,ls),
(853,-154,o),
(786,-131.667,o),
(714,-87,cs),
(518,35.667,o),
(423.333,253.667,o),
(382,587,c),
(446,609,l),
(446,609,l)
);
},
{
closed = 1;
nodes = (
(267,298,o),
(226.667,286.333,o),
(186,273,c),
(100,318,l),
(102,332,l),
(159.333,333.333,o),
(193.667,339,o),
(263,351,c),
(362.333,373.667,o),
(462.667,397.333,o),
(564,422,cs),
(651,443,ls),
(708.333,456.333,o),
(743.333,468.667,o),
(774,490,c),
(776,492,o),
(779,492.333,o),
(783,491,cs),
(885,452,l),
(884,438,l),
(718,403.333,o),
(540.333,363.333,o),
(351,318,cs),
(329,313.333,o),
(314.333,310,o),
(307,308,cs)
);
},
{
closed = 1;
nodes = (
(298.333,544.667,o),
(266.667,535.667,o),
(226,523,cs),
(202,515,l),
(119,561,l),
(122,575,l),
(184,577.667,o),
(236.333,583.667,o),
(279,593,cs),
(397,617.667,o),
(489.333,638,o),
(556,654,cs),
(624,671.333,o),
(649.667,679.333,o),
(679,702,c),
(681.667,703.333,o),
(684.667,703.333,o),
(688,702,cs),
(785,663,l),
(784,648,l),
(660.667,623.333,o),
(506.333,590.667,o),
(321,550,cs)
);
},
{
closed = 1;
nodes = (
(416,5.667,o),
(627.667,153,o),
(725,281,cs),
(751.667,315.667,o),
(757.667,345,o),
(759,381,c),
(774,382,l),
(818,271,l),
(793,247,ls),
(782.333,235,o),
(773.333,225.667,o),
(766,219,cs),
(600.667,67,o),
(402.667,-51.667,o),
(116,-133,c),
(104,-101,l),
(104,-101,l)
);
}
);
width = 1000;
}
);
unicode = 101158;
}
{
glyphname = u18B27;
layers = (
{
layerId = master01;
shapes = (
{
closed = 1;
nodes = (
(268.667,537.333,o),
(231,526,o),
(203,516,c),
(121,560,l),
(125,574,l),
(176.333,575.333,o),
(226.333,581.333,o),
(275,592,cs),
(343.667,607.333,o),
(393,618.667,o),
(423,626,cs),
(473.667,642,o),
(495,649.667,o),
(523,671,cs),
(526.333,673,o),
(529.333,673.667,o),
(532,673,cs),
(631,633,l),
(630,618,l),
(584,609.333,o),
(504.667,592.333,o),
(392,567,cs),
(316,550,l),
(316,550,l)
);
},
{
closed = 1;
nodes = (
(252,293.333,o),
(211.333,282,o),
(176,270,c),
(91,317,l),
(93,330,l),
(137.667,332,o),
(191.333,338.333,o),
(254,349,cs),
(412.667,381,o),
(503.333,401,o),
(654,437,cs),
(724.667,454.333,o),
(749.667,462.667,o),
(779,484,c),
(781.667,485.333,o),
(784.667,485.333,o),
(788,484,cs),
(888,446,l),
(888,430,l),
(648,382,o),
(511.333,352,o),
(298,304,cs)
);
},
{
closed = 1;
nodes = (
(716.667,723.667,o),
(768.333,689.333,o),
(813,654,cs),
(816.333,650.667,o),
(817.667,647,o),
(817,643,cs),
(800,549,l),
(784,545,l),
(736.667,631.667,o),
(689.667,696.667,o),
(643,740,c),
(658,757,l),
(658,757,l)
);
},
{
closed = 1;
nodes = (
(455.333,286.333,o),
(580.333,12,o),
(843,-72,cs),
(849,-74,o),
(853.667,-75,o),
(857,-75,cs),
(862.333,-75,o),
(863,-71,o),
(863,-67,cs),
(867,125,l),
(891,126,l),
(900.333,20.667,o),
(920.667,-86,o),
(942,-142,cs),
(943,-145,l),
(943,-149,o),
(939.667,-151.667,o),
(933,-153,c),
(914,-154,ls),
(850.667,-154,o),
(784,-132.333,o),
(714,-89,cs),
(507.333,40.333,o),
(404.667,259,o),
(362,587,c),
(426,609,l),
(426,609,l)
);
},
{
closed = 1;
nodes = (
(416,-2.333,o),
(627.667,145,o),
(725,273,cs),
(751.667,307.667,o),
(757.667,337,o),
(759,373,c),
(774,374,l),
(818,263,l),
(793,239,ls),
(782.333,227,o),
(773.333,217.667,o),
(766,211,cs),
(600.667,59,o),
(402.667,-59.667,o),
(116,-141,c),
(104,-109,l),
(104,-109,l)
);
}
);
width = 1000;
}
);
unicode = 101159;
}
{
glyphname = u18B3B;
layers = (
{
layerId = master01;
shapes = (
{
closed = 1;
nodes = (
(206.333,419,o),
(165.667,412.667,o),
(123,404,c),
(47,462,l),
(52,475,l),
(84.667,472.333,o),
(117,471,o),
(149,471,cs),
(176.333,471,o),
(196.667,471.667,o),
(210,473,cs),
(428.667,485,o),
(600,497.333,o),
(724,510,cs),
(789.333,515.333,o),
(821,521,o),
(853,541,cs),
(855.667,542.333,o),
(858.667,542,o),
(862,540,cs),
(954,487,l),
(951,472,l),
(686.333,457.333,o),
(451,441,o),
(245,423,cs)
);
},
{
closed = 1;
nodes = (
(482,460.667,o),
(481.333,570,o),
(480,632,cs),
(478.667,670.667,o),
(464.333,720,o),
(435,752,c),
(446,764,l),
(550,678,l),
(544,646.667,o),
(541,612.333,o),
(541,575,cs),
(541,405,o),
(541.333,278.667,o),
(542,196,c),
(482,189,l),
(482,304,l),
(482,304,l)
);
},
{
closed = 1;
nodes = (
(331.333,211.333,o),
(432,219,o),
(580,231,cs),
(587.333,231,o),
(597.667,231.667,o),
(611,233,cs),
(679,239.667,o),
(709.333,246.333,o),
(740,265,cs),
(742.667,266.333,o),
(745.667,266,o),
(749,264,cs),
(841,211,l),
(838,196,l),
(652,185.333,o),
(466.333,172.667,o),
(281,158,c),
(278,208,l),
(278,208,l)
);
},
{
closed = 1;
nodes = (
(514.667,-28.667,o),
(565.333,-25,o),
(584,-23,cs),
(652,-16.333,o),
(682.333,-9.667,o),
(713,9,cs),
(715.667,10.333,o),
(718.667,10,o),
(722,8,cs),
(814,-45,l),
(811,-60,l),
(623.667,-70,o),
(451,-81.333,o),
(293,-94,c),
(293,-44,l),
(432,-34,l),
(432,-34,l)
);
},
{
closed = 1;
nodes = (
(311.333,179.667,o),
(310,161.333,o),
(310,146,cs),
(310,126.667,o),
(310.667,110.667,o),
(312,98,cs),
(328,-154,l),
(316,-160,l),
(249,-96,ls),
(247.667,-94.667,o),
(247.667,-91.667,o),
(249,-87,cs),
(256.333,-67,o),
(259.667,-45.333,o),
(259,-22,cs),
(247,151,ls),
(244.333,189.667,o),
(228.667,236.333,o),
(198,267,c),
(207,280,l),
(314,201,l),
(314,201,l)
);
}
);
width = 1000;
}
);
unicode = 101179;
}
{
glyphname = u18B3D;
layers = (
{
layerId = master01;
shapes = (
{
closed = 1;
nodes = (
(396.333,318,o),
(661.667,341.667,o),
(695,347,cs),
(742.333,356.333,o),
(777.333,372.333,o),
(800,395,cs),
(803.333,398.333,o),
(806.667,398.333,o),
(810,395,cs),
(864,332,l),
(867.333,329.333,o),
(867.333,326.333,o),
(864,323,cs),
(839,300,ls),
(831,293.333,o),
(829,291,o),
(829,283,cs),
(829,77.667,o),
(820.667,-4.667,o),
(802,-90,cs),
(794.667,-122,o),
(783,-145.667,o),
(767,-161,cs),
(765,-163,o),
(763,-164,o),
(761,-164,cs),
(759.667,-164,o),
(756.667,-162.333,o),
(752,-159,c),
(694.667,-107,o),
(653.667,-72,o),
(591,-32,c),
(603,-10,l),
(728,-68,ls),
(730.667,-69.333,o),
(732.667,-70,o),
(734,-70,cs),
(738.667,-70,o),
(742,-66.333,o),
(744,-59,cs),
(757.333,-8.333,o),
(767,109,o),
(767,229,cs),
(767,257,o),
(766.667,277.667,o),
(766,291,cs),
(766,300.333,o),
(762.667,303.333,o),
(756,302,c),
(564,285,ls),
(459.333,276.333,o),
(347,266,o),
(227,254,c),
(223,306,l),
(223,306,l)
);
},
{
closed = 1;
nodes = (
(474,552,o),
(473.667,604.667,o),
(473,632,cs),
(471.667,670.667,o),
(457.333,720,o),
(428,752,c),
(439,764,l),
(543,678,l),
(537,646.667,o),
(534,612.333,o),
(534,575,cs),
(534,311,l),
(474,304,l),
(474,474,l),
(474,474,l)
);
},
{
closed = 1;
nodes = (
(253.667,276,o),
(251,241.667,o),
(251,201,cs),
(251,-151,l),
(237,-157,l),
(174,-89,ls),
(172,-87,o),
(172,-84,o),
(174,-80,cs),
(184,-59.333,o),
(189,-37.667,o),
(189,-15,cs),
(189,-1.667,o),
(189.333,8.333,o),
(190,15,cs),
(191,122,ls),
(191,141.333,o),
(190.333,178.333,o),
(189,233,cs),
(189,258,ls),
(187.667,298,o),
(175,346,o),
(147,378,c),
(157,390,l),
(259,304,l),
(259,304,l)
);
},
{
closed = 1;
nodes = (
(201.333,479,o),
(160.667,472.667,o),
(118,464,c),
(42,522,l),
(47,535,l),
(79.667,532.333,o),
(112,531,o),
(144,531,cs),
(171.333,531,o),
(191.667,531.667,o),
(205,533,cs),
(253,536,ls),
(427,546,o),
(579.333,557.333,o),
(710,570,cs),
(775.333,575.333,o),
(807,581,o),
(839,601,cs),
(841.667,602.333,o),
(844.667,602,o),
(848,600,cs),
(940,547,l),
(937,532,l),
(721,520,o),
(488.667,503.667,o),
(240,483,cs)
);
}
);
width = 1000;
}
);
unicode = 101181;
}
{
glyphname = u18B46;
layers = (
{
layerId = master01;
shapes = (
{
closed = 1;
nodes = (
(666.667,287.667,o),
(715.667,218.667,o),
(745,180,cs),
(811.667,93.333,o),
(873,59.667,o),
(969,45,c),
(969,22,l),
(782,11,ls),
(774,11,o),
(768.667,13.333,o),
(766,18,cs),
(659.333,206.667,o),
(574.667,349.333,o),
(512,446,c),
(534,479,l),
(598,387,l),
(598,387,l)
);
},
{
closed = 1;
nodes = (
(379.667,222,o),
(227.333,82.333,o),
(42,-39,c),
(25,-17,l),
(211.667,117.667,o),
(374,296,o),
(446,480,c),
(485,456,l),
(485,418,l),
(485,418,l)
);
},
{
closed = 1;
nodes = (
(538.333,654.333,o),
(535,620,o),
(535,580,cs),
(534,215,ls),
(532.667,49.667,o),
(532,-72.333,o),
(532,-151,c),
(519,-157,l),
(457,-89,ls),
(455.667,-87.667,o),
(455.667,-84.667,o),
(457,-80,cs),
(465,-62,o),
(469.667,-40.333,o),
(471,-15,cs),
(474.333,77,o),
(476,207.333,o),
(476,376,cs),
(476,481.333,o),
(475,568.333,o),
(473,637,cs),
(471.667,678.333,o),
(459.333,725,o),
(430,757,c),
(441,769,l),
(545,683,l),
(545,683,l)
);
},
{
closed = 1;
nodes = (
(246.333,420,o),
(205.333,414.333,o),
(170,407,c),
(92,465,l),
(97,478,l),
(124.333,474.667,o),
(154.333,473,o),
(187,473,cs),
(210.333,473,o),
(233.667,474,o),
(257,476,cs),
(330.333,480,o),
(384,483.333,o),
(418,486,cs),
(494,490,o),
(586.667,495.667,o),
(696,503,cs),
(761.333,508.333,o),
(794,514.333,o),
(826,533,cs),
(828.667,534.333,o),
(831.667,534,o),
(835,532,cs),
(928,480,l),
(925,465,l),
(752,455,ls),
(605.333,448.333,o),
(467.667,440,o),
(293,424,cs)
);
}
);
width = 1000;
}
);
unicode = 101190;
}
{
glyphname = u18B53;
layers = (
{
layerId = master01;
shapes = (
{
closed = 1;
nodes = (
(326.333,119.667,o),
(201.333,5,o),
(44,-91,c),
(28,-69,l),
(187.333,53.667,o),
(306.333,184.667,o),
(385,324,c),
(419,253,l),
(419,253,l)
);
},
{
closed = 1;
nodes = (
(736,182.667,o),
(832.333,97.667,o),
(915,9,cs),
(917.667,6.333,o),
(919,3,o),
(919,-1,cs),
(910,-119,l),
(889,-119,l),
(814.333,15.667,o),
(717.667,141.667,o),
(611,239,c),
(626,264,l),
(626,264,l)
);
},
{
closed = 1;
nodes = (
(214,594,o),
(263.333,541.333,o),
(304,488,cs),
(306,485.333,o),
(306.333,481.667,o),
(305,477,cs),
(285,396,l),
(265,396,l),
(237,466.667,o),
(180.667,573.667,o),
(138,631,c),
(156,646,l),
(156,646,l)
);
},
{
closed = 1;
nodes = (
(234.333,283,o),
(193.333,277.333,o),
(148,268,c),
(71,326,l),
(76,339,l),
(106.667,335.667,o),
(139.667,334,o),
(175,334,cs),
(189,334,o),
(209.333,334.667,o),
(236,336,cs),
(303.333,340,o),
(389,345.833,o),
(493,353.5,cs),
(597,361.167,o),
(672,366.667,o),
(718,370,cs),
(786,376.667,o),
(816,380.333,o),
(848,399,cs),
(850.667,400.333,o),
(853.667,400,o),
(857,398,cs),
(949,345,l),
(946,330,l),
(740.667,319.333,o),
(515.667,304.333,o),
(271,285,cs)
);
},
{
closed = 1;
nodes = (
(682.667,475.333,o),
(746.333,545.667,o),
(781,603,cs),
(795.667,627,o),
(807.667,663,o),
(805,695,c),
(820,698,l),
(867,583,l),
(842,559,l),
(817,535,ls),
(747.667,474.333,o),
(680.333,424.333,o),
(615,385,c),
(608,418,l),
(608,418,l)
);
},
{
closed = 1;
nodes = (
(440.333,645.333,o),
(437,611,o),
(437,571,cs),
(436,206,ls),
(434.667,39.333,o),
(434,-82.667,o),
(434,-160,c),
(421,-166,l),
(359,-98,ls),
(357.667,-96.667,o),
(357.667,-93.667,o),
(359,-89,cs),
(367,-71,o),
(371.667,-49.333,o),
(373,-24,cs),
(376.333,67.333,o),
(378,195,o),
(378,359,cs),
(378,462.333,o),
(377,552,o),
(375,628,cs),
(373.667,669.333,o),
(361.333,716,o),
(332,748,c),
(343,760,l),
(447,674,l),
(447,674,l)
);
},
{
closed = 1;
nodes = (
(638.333,639.333,o),
(635,605,o),
(635,565,cs),
(634,203,ls),
(632.667,39,o),
(632,-82,o),
(632,-160,c),
(619,-166,l),
(557,-98,ls),
(555.667,-96.667,o),
(555.667,-93.667,o),
(557,-89,cs),
(565,-71,o),
(569.667,-49.333,o),
(571,-24,cs),
(574.333,67.333,o),
(576,193.667,o),
(576,355,cs),
(576,457,o),
(575,546,o),
(573,622,cs),
(571.667,663.333,o),
(559.333,710,o),
(530,742,c),
(541,754,l),
(645,668,l),
(645,668,l)
);
}
);
width = 1000;
}
);
unicode = 101203;
}
{
glyphname = u18B57;
layers = (
{
layerId = master01;
shapes = (
{
closed = 1;
nodes = (
(715,139.333,o),
(813.667,58,o),
(913,-38,cs),
(915.667,-40.667,o),
(916.333,-44.333,o),
(915,-49,c),
(895,-175,l),
(878,-179,l),
(810,-55,o),
(701.333,87.333,o),
(600,182,c),
(617,206,l),
(617,206,l)
);
},
{
closed = 1;
nodes = (
(171,-52,o),
(283.667,52,o),
(329,128,cs),
(343.667,152,o),
(356.667,188,o),
(354,220,c),
(369,223,l),
(419,93,l),
(394,70,l),
(369,46,ls),
(289,-26,o),
(162.333,-117.667,o),
(45,-175,c),
(31,-152,l),
(31,-152,l)
);
},
{
closed = 1;
nodes = (
(216.667,259,o),
(176,253.333,o),
(132,244,c),
(56,302,l),
(61,315,l),
(91.667,311.667,o),
(124.333,310,o),
(159,310,cs),
(172.333,310,o),
(192.333,310.667,o),
(219,312,cs),
(395,321.333,o),
(566.667,333.333,o),
(734,348,cs),
(800.667,353.333,o),
(831,358.333,o),
(863,377,cs),
(865.667,378.333,o),
(867.667,378.5,o),
(869,377.5,cs),
(870.333,376.5,o),
(871.333,376,o),
(872,376,c),
(963,323,l),
(960,308,l),
(731.333,296,o),
(496,280.333,o),
(254,261,cs)
);
},
{
closed = 1;
nodes = (
(288,494.667,o),
(247.333,488.667,o),
(204,480,c),
(128,538,l),
(133,551,l),
(163.667,547.667,o),
(196.333,546,o),
(231,546,cs),
(244.333,546,o),
(264.333,546.667,o),
(291,548,cs),
(365,553,ls),
(485,561,o),
(576.667,568,o),
(640,574,cs),
(704,579.333,o),
(737,585.333,o),
(769,604,cs),
(771.667,605.333,o),
(773.667,605.5,o),
(775,604.5,cs),
(776.333,603.5,o),
(777.333,603,o),
(778,603,c),
(869,552,l),
(866,537,l),
(743.333,529.667,o),
(563.333,516.667,o),
(326,498,cs)
);
},
{
closed = 1;
nodes = (
(482,448,o),
(480.667,557,o),
(478,631,cs),
(476.667,672.333,o),
(464.333,719,o),
(435,751,c),
(446,763,l),
(560,677,l),
(553.333,648.333,o),
(550,614,o),
(550,574,cs),
(550,311,l),
(482,304,l),
(482,304,l)
);
}
);
width = 1000;
}
);
unicode = 101207;
}
{
glyphname = u18B5C;
layers = (
{
layerId = master01;
shapes = (
{
closed = 1;
nodes = (
(319,520,o),
(278.667,513.667,o),
(238,505,c),
(161,559,l),
(166,572,l),
(198,569.333,o),
(229.333,568,o),
(260,568,cs),
(274.667,568,o),
(296,568.667,o),
(324,570,cs),
(454,578.667,o),
(549.333,586,o),
(610,592,cs),
(674,597.333,o),
(707,603,o),
(739,623,c),
(742.333,624.333,o),
(745.333,624,o),
(748,622,cs),
(839,572,l),
(836,557,l),
(656,547,o),
(497,536,o),
(359,524,cs)
);
},
{
closed = 1;
nodes = (
(189.667,111,o),
(149,105,o),
(113,97,c),
(37,155,l),
(42,168,l),
(71.333,165.333,o),
(101,164,o),
(131,164,cs),
(146.333,164,o),
(169.333,164.667,o),
(200,166,cs),
(276.667,170.667,o),
(381,179,o),
(513,191,cs),
(575.667,197,o),
(648.667,203.333,o),
(732,210,cs),
(798.667,215.333,o),
(829,220.333,o),
(861,239,cs),
(863.667,240.333,o),
(866.667,240,o),
(870,238,cs),
(961,186,l),
(958,171,l),
(723.333,159,o),
(527,143,o),
(235,115,cs)
);
},
{
closed = 1;
nodes = (
(542,652,o),
(539,617.667,o),
(539,575,cs),
(538,182,l),
(526,175,l),
(464,244,ls),
(461.333,246.667,o),
(461.333,249.667,o),
(464,253,c),
(474.667,273,o),
(476.667,284.333,o),
(478,307,cs),
(479.333,353.667,o),
(480,391.667,o),
(480,421,cs),
(480,460.333,o),
(478.667,530.667,o),
(476,632,cs),
(474.667,673.333,o),
(462,720,o),
(434,752,c),
(445,764,l),
(548,678,l),
(548,678,l)
);
},
{
closed = 1;
nodes = (
(317,341,o),
(314,306.667,o),
(314,264,cs),
(312,113.333,o),
(310.667,-27.333,o),
(310,-158,c),
(298,-165,l),
(236,-96,ls),
(233.333,-93.333,o),
(233.333,-90.333,o),
(236,-87,c),
(245.333,-69,o),
(250.333,-48.667,o),
(251,-26,cs),
(253,21.333,o),
(254,81.667,o),
(254,155,cs),
(254,201.667,o),
(253.333,257,o),
(252,321,cs),
(250.667,362.333,o),
(239,410,o),
(211,442,c),
(222,453,l),
(323,367,l),
(323,367,l)
);
},
{
closed = 1;
nodes = (
(769.333,377.333,o),
(766,343,o),
(766,299,cs),
(760,-158,l),
(748,-165,l),
(687,-95,ls),
(684.333,-92.333,o),
(684.333,-89.333,o),
(687,-86,c),
(695.667,-70.667,o),
(700.667,-50.667,o),
(702,-26,cs),
(704.667,52.667,o),
(706,129,o),
(706,203,cs),
(706,245,o),
(705.333,296,o),
(704,356,cs),
(704,396,o),
(692,443.667,o),
(664,477,c),
(675,489,l),
(776,402,l),
(776,402,l)
);
}
);
width = 1000;
}
);
unicode = 101212;
}
{
glyphname = u18B60;
layers = (
{
layerId = master01;
shapes = (
{
closed = 1;
nodes = (
(484,75,l),
(258,-51,ls),
(207.333,-79,o),
(173.667,-99,o),
(157,-111,c),
(62,-77,l),
(62,-64,l),
(111.333,-50,o),
(156,-34.333,o),
(196,-17,cs),
(471,103,l),
(471,103,l)
);
},
{
closed = 1;
nodes = (
(536,668,o),
(521,711.333,o),
(493,746,c),
(504,758,l),
(610,671,l),
(603.333,645.667,o),
(600,611.667,o),
(600,569,cs),
(600,1,ls),
(600,-40.333,o),
(605.667,-51.667,o),
(635,-53,cs),
(668.333,-54.333,o),
(695.333,-55,o),
(716,-55,cs),
(775.333,-55,o),
(821,-52.333,o),
(853,-47,c),
(874.333,-45.667,o),
(878.667,-39.333,o),
(880,-18,cs),
(888,145,l),
(912,145,l),
(918.667,62.333,o),
(934.333,-23.333,o),
(953,-78,c),
(953.667,-78.667,o),
(954,-80,o),
(954,-82,cs),
(954,-85.333,o),
(952.333,-87.667,o),
(949,-89,cs),
(924.333,-99.667,o),
(887,-107.333,o),
(837,-112,cs),
(801,-116,o),
(762.667,-118,o),
(722,-118,cs),
(688,-118,o),
(654.667,-117,o),
(622,-115,cs),
(560.667,-112.333,o),
(536,-82.667,o),
(536,-12,cs),
(536,624,l),
(536,624,l)
);
},
{
closed = 1;
nodes = (
(205.667,310.667,o),
(174.667,305.333,o),
(144,298,c),
(76,345,l),
(81,357,l),
(102.333,355,o),
(121.333,354,o),
(138,354,cs),
(145.333,354,o),
(167,355,o),
(203,357,cs),
(276.333,363.667,o),
(321.333,368.667,o),
(338,372,cs),
(352.667,375.333,o),
(364.833,379.333,o),
(374.5,384,cs),
(384.167,388.667,o),
(390.333,391.667,o),
(393,393,cs),
(395.667,394.333,o),
(398.667,394.333,o),
(402,393,cs),
(485,354,l),
(482,337,l),
(418.667,333.667,o),
(337,326,o),
(237,314,cs)
);
},
{
closed = 1;
nodes = (
(258,586,o),
(243,629.333,o),
(215,664,c),
(226,676,l),
(330,589,l),
(323.333,563.667,o),
(320,529.667,o),
(320,487,cs),
(320,3,l),
(258,-29,l),
(258,542,l),
(258,542,l)
);
},
{
closed = 1;
nodes = (
(686.667,447.333,o),
(717,452.333,o),
(749,471,cs),
(751.667,472.333,o),
(753.667,472.5,o),
(755,471.5,cs),
(756.333,470.5,o),
(757.333,470,o),
(758,470,c),
(849,417,l),
(846,402,l),
(668,392,l),
(562,386,l),
(562,437,l),
(620,442,l),
(620,442,l)
);
},
{
closed = 1;
nodes = (
(704.667,215.333,o),
(735,220.333,o),
(767,239,cs),
(769.667,240.333,o),
(771.667,240.5,o),
(773,239.5,cs),
(774.333,238.5,o),
(775.333,238,o),
(776,238,c),
(867,185,l),
(864,170,l),
(686,160,l),
(580,154,l),
(580,205,l),
(638,210,l),
(638,210,l)
);
}
);
width = 1000;
}
);
unicode = 101216;
}
{
glyphname = u18B61;
layers = (
{
layerId = master01;
shapes = (
{
closed = 1;
nodes = (
(468,52,l),
(256,-63,ls),
(210.667,-87,o),
(177,-107,o),
(155,-123,c),
(60,-89,l),
(60,-76,l),
(104,-63.333,o),
(148.667,-47.667,o),
(194,-29,cs),
(455,80,l),
(455,80,l)
);
},
{
closed = 1;
nodes = (
(202.667,289.667,o),
(171.667,284.333,o),
(141,277,c),
(73,324,l),
(78,336,l),
(99.333,334,o),
(118.333,333,o),
(135,333,cs),
(142.333,333,o),
(164,334,o),
(200,336,cs),
(245.333,340,o),
(283,345,o),
(313,351,cs),
(327.667,354.333,o),
(339.833,358.333,o),
(349.5,363,cs),
(359.167,367.667,o),
(365.333,370.667,o),
(368,372,cs),
(370.667,373.333,o),
(373.667,373.333,o),
(377,372,cs),
(460,333,l),
(457,316,l),
(422.333,314.667,o),
(355.333,308,o),
(256,296,cs),
(234,293,l),
(234,293,l)
);
},
{
closed = 1;
nodes = (
(241,579,o),
(226,622.333,o),
(198,657,c),
(209,669,l),
(313,582,l),
(306.333,556.667,o),
(303,522.667,o),
(303,480,cs),
(303,-6,l),
(241,-38,l),
(241,535,l),
(241,535,l)
);
},
{
closed = 1;
nodes = (
(502,647,o),
(487,690.333,o),
(459,725,c),
(470,737,l),
(576,650,l),
(569.333,624.667,o),
(566,590.667,o),
(566,548,cs),
(566,-14,ls),
(566,-55.333,o),
(571.667,-66.667,o),
(601,-68,cs),
(634.333,-70,o),
(671,-71,o),
(711,-71,cs),
(777.667,-71,o),
(828.667,-68,o),
(864,-62,c),
(885.333,-60.667,o),
(889.667,-54.333,o),
(891,-33,cs),
(899,136,l),
(923,136,l),
(931,52,o),
(945.333,-39.667,o),
(964,-93,c),
(964.667,-93.667,o),
(965,-95,o),
(965,-97,cs),
(965,-100.333,o),
(963.333,-102.667,o),
(960,-104,cs),
(935.333,-114.667,o),
(898,-122.333,o),
(848,-127,cs),
(810,-131.667,o),
(766,-134,o),
(716,-134,cs),
(686.667,-134,o),
(644,-132.667,o),
(588,-130,cs),
(526.667,-127.333,o),
(502,-97.667,o),
(502,-27,cs),
(502,603,l),
(502,603,l)
);
},
{
closed = 1;
nodes = (
(611.667,358.667,o),
(678,330.333,o),
(734,299,cs),
(736,297.667,o),
(737.667,294.333,o),
(739,289,cs),
(754,207,l),
(735,199,l),
(683,252.333,o),
(587.667,327,o),
(525,363,c),
(535,384,l),
(535,384,l)
);
},
{
closed = 1;
nodes = (
(615,578,l),
(643,575.333,o),
(663.333,574,o),
(676,574,cs),
(697.333,574,o),
(721,576.333,o),
(747,581,cs),
(776.333,586.333,o),
(796.667,593.333,o),
(818,616,cs),
(821.333,619.333,o),
(824.333,619.333,o),
(827,616,c),
(875,573,ls),
(878.333,569.667,o),
(878.333,566.333,o),
(875,563,cs),
(858,547,ls),
(848,537,o),
(841.667,528.667,o),
(839,522,cs),
(795,420,ls),
(793,415.333,o),
(794.667,413,o),
(800,413,cs),
(807.333,413,o),
(817.667,414.333,o),
(831,417,cs),
(853.667,422.333,o),
(871,428,o),
(891,448,cs),
(894.333,451.333,o),
(898,451.333,o),
(902,448,cs),
(952,410,ls),
(954,408,o),
(954,405.667,o),
(952,403,cs),
(941.333,388.333,o),
(935.667,380.333,o),
(935,379,cs),
(932.333,375,o),
(924.667,364,o),
(922,352,cs),
(898.667,235.333,o),
(872.667,150,o),
(844,96,cs),
(828,65.333,o),
(814.333,45.333,o),
(793,28,cs),
(791,26,o),
(788.667,25,o),
(786,25,cs),
(784,25,o),
(781.333,26.667,o),
(778,30,cs),
(751.333,63.333,o),
(707.667,104,o),
(647,152,c),
(660,170,l),
(771,110,ls),
(775.667,107.333,o),
(779.333,106,o),
(782,106,cs),
(784.667,106,o),
(788.667,112.333,o),
(790,115,cs),
(830,180.333,o),
(853,272,o),
(865,360,cs),
(865,362,ls),
(865,368.667,o),
(861.667,372,o),
(855,372,cs),
(836.333,370.667,o),
(817.667,368.667,o),
(799,366,cs),
(793.667,364.667,o),
(789.5,363.167,o),
(786.5,361.5,cs),
(783.5,359.833,o),
(777.667,354.667,o),
(769,346,cs),
(765.667,342.667,o),
(762,342.667,o),
(758,346,c),
(715,398,ls),
(712.333,401.333,o),
(713,404.667,o),
(717,408,c),
(735,418,o),
(747.333,431.333,o),
(754,448,cs),
(782,525,ls),
(782.667,526.333,o),
(783,528.333,o),
(783,531,cs),
(783,537,o),
(780,539.333,o),
(774,538,cs),
(730.667,533.333,o),
(697.667,526.667,o),
(675,518,c),
(610,566,l),
(610,566,l)
);
}
);
width = 1000;
}
);
unicode = 101217;
}
{
glyphname = u18B71;
layers = (
{
layerId = master01;
shapes = (
{
closed = 1;
nodes = (
(478,670,l),
(473.333,646,o),
(469.333,617.333,o),
(466,584,cs),
(463,554,ls),
(439,315.333,o),
(401.167,154.5,o),
(288.5,12.5,cs),
(232.167,-58.5,o),
(153.667,-115.667,o),
(53,-159,c),
(40,-134,l),
(225.333,-31.333,o),
(314.167,117.667,o),
(349.5,271,cs),
(367.167,347.667,o),
(382.333,447.333,o),
(395,570,cs),
(396.333,580.667,o),
(397,595.667,o),
(397,615,cs),
(397,664.333,o),
(387,704.667,o),
(363,746,c),
(376,756,l),
(376,756,l)
);
},
{
closed = 1;
nodes = (
(620,256.667,o),
(617.667,259,o),
(613,259,cs),
(533.667,253.667,o),
(414.333,242.667,o),
(255,226,cs),
(221,222,o),
(187.333,216.667,o),
(154,210,c),
(78,265,l),
(83,278,l),
(114.333,274.667,o),
(142,273,o),
(166,273,cs),
(173.333,273,o),
(198,274,o),
(240,276,cs),
(314,281.333,o),
(402.667,289,o),
(506,299,cs),
(531,301,ls),
(589.667,307.667,o),
(624,316.333,o),
(656,343,cs),
(659.333,346.333,o),
(662.333,346.333,o),
(665,343,cs),
(721,287,ls),
(723.667,284.333,o),
(723.333,281.333,o),
(720,278,cs),
(696,257,ls),
(690.667,251.667,o),
(687.333,246,o),
(686,240,cs),
(665.333,155.333,o),
(651.333,74.333,o),
(644,-3,cs),
(643.333,-7,o),
(643,-12.333,o),
(643,-19,cs),
(643,-47,o),
(652.333,-54.333,o),
(679,-57,cs),
(690.333,-57.667,o),
(709,-58,o),
(735,-58,cs),
(789,-58,o),
(832,-55.667,o),
(864,-51,cs),
(885.333,-49.667,o),
(891,-43.333,o),
(891,-22,cs),
(894,192,l),
(918,192,l),
(927.333,70.667,o),
(942.667,-20.667,o),
(964,-82,c),
(964.667,-82.667,o),
(965,-84,o),
(965,-86,cs),
(965,-89.333,o),
(963.333,-91.667,o),
(960,-93,cs),
(935.333,-103.667,o),
(898,-111.333,o),
(848,-116,cs),
(820.667,-119.333,o),
(784.667,-121,o),
(740,-121,cs),
(721.333,-121,o),
(695.333,-120.333,o),
(662,-119,cs),
(605.333,-115.667,o),
(577,-84.333,o),
(577,-25,cs),
(577,-15.667,o),
(577.333,-8.333,o),
(578,-3,cs),
(586,73,o),
(600,157.333,o),
(620,250,c),
(620,252,l),
(620,252,l)
);
},
{
closed = 1;
nodes = (
(278,466.667,o),
(237.333,460.667,o),
(194,452,c),
(118,507,l),
(123,520,l),
(153.667,516.667,o),
(186.333,515,o),
(221,515,cs),
(234.333,515,o),
(254.333,515.667,o),
(281,517,cs),
(353,521.667,o),
(435.333,528,o),
(528,536,cs),
(566,539,ls),
(628.667,544.333,o),
(661.667,551.333,o),
(695,570,cs),
(698.333,571.333,o),
(701.333,571,o),
(704,569,cs),
(795,519,l),
(792,504,l),
(630.667,495.333,o),
(472,484,o),
(316,470,cs)
);
}
);
width = 1000;
}
);
unicode = 101233;
}
{
glyphname = u18B7C;
layers = (
{
layerId = master01;
shapes = (
{
closed = 1;
nodes = (
(386,-106.333,o),
(346.667,-111.667,o),
(312,-119,c),
(238,-64,l),
(243,-51,l),
(273.667,-54.333,o),
(305,-56,o),
(337,-56,cs),
(349,-56,o),
(368.333,-55.333,o),
(395,-54,cs),
(428,-52,ls),
(482,-49.333,o),
(520,-46.667,o),
(542,-44,cs),
(590,-37.333,o),
(617,-32.667,o),
(649,-14,c),
(652.333,-12.667,o),
(655.333,-13,o),
(658,-15,cs),
(749,-67,l),
(746,-82,l),
(630.667,-88.667,o),
(525.333,-95.667,o),
(430,-103,cs)
);
},
{
closed = 1;
nodes = (
(449.333,52,o),
(450,96.333,o),
(450,117,cs),
(450,133,o),
(449.333,164.333,o),
(448,211,cs),
(446.667,251,o),
(434,299,o),
(406,331,c),
(416,343,l),
(523,257,l),
(517,231.667,o),
(513.667,197.333,o),
(513,154,cs),
(511,84,ls),
(509.667,17.333,o),
(509,-32.667,o),
(509,-66,c),
(446,-73,l),
(448,-16,l),
(448,-16,l)
);
},
{
closed = 1;
nodes = (
(574.667,685.333,o),
(556.333,714,o),
(515,738,c),
(521,754,l),
(632,725,l),
(631,709,ls),
(631,691.667,o),
(636.667,668.667,o),
(646,634,cs),
(672,545.333,o),
(712.333,435.333,o),
(767,304,cs),
(800.333,222.667,o),
(824.167,173.667,o),
(871.5,131,cs),
(895.167,109.667,o),
(923.667,95.667,o),
(957,89,c),
(957,67,l),
(808,54,l),
(806,54,ls),
(798,54,o),
(791.667,59.667,o),
(789,65,c),
(756,157,ls),
(737.333,209,o),
(648,461.333,o),
(588,644,cs)
);
},
{
closed = 1;
nodes = (
(334.667,323.667,o),
(237.333,154.333,o),
(80,9,c),
(59,29,l),
(203.667,193,o),
(301.667,389,o),
(353,617,cs),
(357.667,637,o),
(360,658,o),
(360,680,cs),
(360,706.667,o),
(355.667,728.667,o),
(347,746,c),
(361,755,l),
(450,638,l),
(434,611.333,o),
(424,593,o),
(408,545,cs)
);
},
{
closed = 1;
nodes = (
(219.333,432.333,o),
(178.667,426,o),
(144,418,c),
(66,475,l),
(71,488,l),
(103,486,o),
(131.667,485,o),
(157,485,cs),
(174.333,485,o),
(199,485.667,o),
(231,487,cs),
(277.667,491,o),
(319,494,o),
(355,496,cs),
(457.667,503.333,o),
(573.333,512.667,o),
(702,524,cs),
(763.333,529.333,o),
(798.667,537,o),
(832,557,cs),
(834.667,558.333,o),
(837.667,558,o),
(841,556,cs),
(934,504,l),
(931,489,l),
(893,485.667,o),
(817.667,480,o),
(705,472,cs),
(485,455.333,o),
(338.667,443.667,o),
(266,437,cs)
);
}
);
width = 1000;
}
);
unicode = 101244;
}
{
glyphname = u18B7E;
layers = (
{
layerId = master01;
shapes = (
{
closed = 1;
nodes = (
(374.667,372,o),
(226.667,185.667,o),
(44,63,c),
(26,88,l),
(208.667,238.667,o),
(353.333,439.667,o),
(424,629,cs),
(432.667,653.667,o),
(437,678,o),
(437,702,cs),
(437,720,o),
(434,737,o),
(428,753,c),
(443,762,l),
(522,641,l),
(504.667,619.667,o),
(492,600,o),
(468,552,cs)
);
},
{
closed = 1;
nodes = (
(219.333,462.333,o),
(178.667,456,o),
(144,448,c),
(66,505,l),
(71,518,l),
(103,516,o),
(131.667,515,o),
(157,515,cs),
(174.333,515,o),
(199,515.667,o),
(231,517,cs),
(421,531,ls),
(496.333,536.333,o),
(573.333,542.333,o),
(652,549,cs),
(713.333,554.333,o),
(748.667,562,o),
(782,582,cs),
(784.667,583.333,o),
(787.667,583,o),
(791,581,cs),
(884,529,l),
(881,514,l),
(791.667,507.333,o),
(722,502.333,o),
(672,499,cs),
(466,483.667,o),
(330.667,473,o),
(266,467,cs)
);
},
{
closed = 1;
nodes = (
(604.667,444,o),
(667.333,368.667,o),
(736,296,cs),
(798.667,228,o),
(835,195.167,o),
(887,170.5,cs),
(913,158.167,o),
(943.333,149.667,o),
(978,145,c),
(979,118,l),
(833,98,l),
(830,98,ls),
(822.667,98,o),
(817,100.667,o),
(813,106,cs),
(733,202,o),
(605.333,369,o),
(500,513,c),
(548,522,l),
(548,522,l)
);
},
{
closed = 1;
nodes = (
(364.667,178.667,o),
(549.333,201.667,o),
(576,207,cs),
(604.667,213,o),
(626.333,223.667,o),
(641,239,c),
(645,241.667,o),
(648.667,241.667,o),
(652,239,cs),
(707,196,ls),
(710.333,194,o),
(710.333,191,o),
(707,187,cs),
(693,168,ls),
(689.667,163.333,o),
(687.333,158.333,o),
(686,153,cs),
(680.667,127.667,o),
(653.667,-31.333,o),
(651,-62,c),
(589,-71,l),
(599.667,7.667,o),
(616,135,o),
(616,147,cs),
(616,151,ls),
(616,153.667,o),
(613.667,155,o),
(609,155,cs),
(578.333,153.667,o),
(367.667,128,o),
(269,116,c),
(270,168,l),
(270,168,l)
);
},
{
closed = 1;
nodes = (
(543,-35.333,o),
(573,-31.667,o),
(605,-13,cs),
(607.667,-11.667,o),
(610.667,-12,o),
(614,-14,cs),
(706,-67,l),
(703,-82,l),
(561,-90,o),
(419,-99.667,o),
(277,-111,c),
(278,-59,l),
(475,-42,l),
(475,-42,l)
);
},
{
closed = 1;
nodes = (
(316.333,131,o),
(314,108,o),
(314,84,cs),
(315,50,l),
(317,-58,l),
(320,-160,l),
(307,-167,l),
(243,-100,ls),
(241,-98,o),
(241,-95,o),
(243,-91,cs),
(251.667,-71,o),
(256,-49.333,o),
(256,-26,cs),
(252,105,ls),
(250.667,143.667,o),
(236,193.333,o),
(208,224,c),
(217,236,l),
(321,153,l),
(321,153,l)
);
}
);
width = 1000;
}
);
unicode = 101246;
}
{
glyphname = u18BA7;
layers = (
{
layerId = master01;
shapes = (
{
closed = 1;
nodes = (
(603.333,231,o),
(708,348.667,o),
(752,434,c),
(764,463.333,o),
(770,489,o),
(770,511,cs),
(770,518.333,o),
(769.667,523.667,o),
(769,527,c),
(784,531,l),
(841,410,l),
(819.667,391.333,o),
(803,375.333,o),
(791,362,cs),
(700.333,265.333,o),
(605,184.333,o),
(505,119,c),
(486,143,l),
(486,143,l)
);
},
{
closed = 1;
nodes = (
(235,404.333,o),
(310.667,340.667,o),
(368,286,c),
(370.667,284.667,o),
(371.667,281,o),
(371,275,cs),
(357,157,l),
(344,154,l),
(280,267.333,o),
(222,350,o),
(122,458,c),
(141,477,l),
(141,477,l)
);
},
{
closed = 1;
nodes = (
(468,542.667,o),
(467.667,605.333,o),
(467,624,cs),
(465.667,661.333,o),
(452.333,709.333,o),
(427,740,c),
(438,752,l),
(540,670,l),
(533.333,641.333,o),
(530,607,o),
(530,567,cs),
(529,-38,l),
(467,-45,l),
(468,436,l),
(468,436,l)
);
},
{
closed = 1;
nodes = (
(192.333,-94,o),
(151.333,-99.667,o),
(106,-109,c),
(29,-51,l),
(34,-38,l),
(64.667,-41.333,o),
(97.667,-43,o),
(133,-43,cs),
(147,-43,o),
(167.333,-42.333,o),
(194,-41,cs),
(406.667,-30.333,o),
(590.333,-18,o),
(745,-4,cs),
(813,2.667,o),
(843,6.333,o),
(875,25,cs),
(877.667,26.333,o),
(880.667,26,o),
(884,24,cs),
(976,-29,l),
(973,-44,l),
(716.333,-56.667,o),
(468.333,-72.667,o),
(229,-92,cs)
);
}
);
width = 1000;
}
);
unicode = 101287;
}
{
glyphname = u18BC6;
layers = (
{
layerId = master01;
shapes = (
{
closed = 1;
nodes = (
(392.333,468.667,o),
(698,493.667,o),
(730,499,cs),
(777.333,508.333,o),
(812.333,524.333,o),
(835,547,cs),
(838.333,550.333,o),
(841.667,550.333,o),
(845,547,cs),
(905,484,l),
(908.333,481.333,o),
(908.333,478.333,o),
(905,475,cs),
(880,452,ls),
(872,445.333,o),
(870,443,o),
(870,435,cs),
(862,149.667,o),
(851.333,37.667,o),
(830,-73,cs),
(824,-104.333,o),
(812.333,-128,o),
(795,-144,cs),
(793,-146,o),
(791,-147,o),
(789,-147,cs),
(785.667,-147,o),
(782.667,-145.333,o),
(780,-142,cs),
(742.667,-96.667,o),
(713.667,-65.667,o),
(659,-27,c),
(671,-5,l),
(755,-46,ls),
(759,-48,o),
(762,-49,o),
(764,-49,cs),
(767.333,-49,o),
(769.667,-45.333,o),
(771,-38,cs),
(790.333,45.333,o),
(800.667,205.667,o),
(802,443,cs),
(802,452.333,o),
(798.667,455.333,o),
(792,454,c),
(688.667,445.333,o),
(615.333,439.333,o),
(572,436,cs),
(534.667,432.667,o),
(473,427.333,o),
(387,420,cs),
(301,412.667,o),
(235.667,406.667,o),
(191,402,c),
(187,454,l),
(187,454,l)
);
},
{
closed = 1;
nodes = (
(216.667,423,o),
(214,388.667,o),
(214,348,cs),
(214,-127,l),
(200,-133,l),
(137,-65,ls),
(135,-63,o),
(135,-60,o),
(137,-56,cs),
(147,-35.333,o),
(152,-13.667,o),
(152,9,cs),
(153.333,89,o),
(154,154.333,o),
(154,205,cs),
(154,256.333,o),
(153.333,320.667,o),
(152,398,cs),
(150.667,438,o),
(137,492,o),
(109,524,c),
(121,535,l),
(222,451,l),
(222,451,l)
);
},
{
closed = 1;
nodes = (
(426.333,625.333,o),
(423,591,o),
(423,551,cs),
(423,487.667,o),
(422.333,388,o),
(421,252,cs),
(419,150,o),
(418,50,o),
(418,-48,c),
(405,-54,l),
(342,14,ls),
(340.667,15.333,o),
(340.667,18.333,o),
(342,23,cs),
(350,41,o),
(354.667,62.667,o),
(356,88,cs),
(360,188,o),
(362,308,o),
(362,448,cs),
(362,493.333,o),
(361.333,546.667,o),
(360,608,cs),
(358.667,649.333,o),
(346.333,696,o),
(317,728,c),
(328,740,l),
(433,654,l),
(433,654,l)
);
},
{
closed = 1;
nodes = (
(635.333,635.333,o),
(632,601,o),
(632,561,cs),
(632,496.333,o),
(631.333,395.333,o),
(630,258,cs),
(628,154,o),
(627,52.667,o),
(627,-46,c),
(614,-52,l),
(551,16,ls),
(549.667,17.333,o),
(549.667,20.333,o),
(551,25,cs),
(559,43,o),
(563.667,64.667,o),
(565,90,cs),
(569,191.333,o),
(571,313.333,o),
(571,456,cs),
(571,501.333,o),
(570.333,555.333,o),
(569,618,cs),
(567.667,659.333,o),
(555.333,706,o),
(526,738,c),
(537,750,l),
(642,664,l),
(642,664,l)
);
}
);
width = 1000;
}
);
unicode = 101318;
}
{
glyphname = u18BD0;
layers = (
{
layerId = master01;
shapes = (
{
closed = 1;
nodes = (
(468,557,o),
(467.667,622.667,o),
(467,642,cs),
(465.667,679.333,o),
(452.333,727.333,o),
(427,758,c),
(438,770,l),
(540,688,l),
(533.333,659.333,o),
(530,625,o),
(530,585,cs),
(529,-52,l),
(467,-59,l),
(468,445,l),
(468,445,l)
);
},
{
closed = 1;
nodes = (
(203.333,-107,o),
(162.333,-112.667,o),
(117,-122,c),
(40,-64,l),
(45,-51,l),
(75.667,-54.333,o),
(108.667,-56,o),
(144,-56,cs),
(158,-56,o),
(178.333,-55.333,o),
(205,-54,cs),
(404.333,-43.333,o),
(579.667,-31.333,o),
(731,-18,cs),
(799,-11.333,o),
(829,-7.667,o),
(861,11,cs),
(863.667,12.333,o),
(866.667,12,o),
(870,10,cs),
(962,-43,l),
(959,-58,l),
(719,-70,o),
(479.333,-85.667,o),
(240,-105,cs)
);
},
{
closed = 1;
nodes = (
(213.667,453,o),
(254.667,458,o),
(266,460,cs),
(292,465.333,o),
(313,476,o),
(329,492,cs),
(332.333,495.333,o),
(335.667,495.333,o),
(339,492,cs),
(393,447,ls),
(395.667,444.333,o),
(395.667,441.333,o),
(393,438,cs),
(381,423,ls),
(380.333,422.333,o),
(379.167,420.833,o),
(377.5,418.5,cs),
(375.833,416.167,o),
(374.333,412.667,o),
(373,408,cs),
(367.667,380,o),
(352,203.667,o),
(352,173,c),
(301,163,l),
(305,216.333,o),
(308.667,357.333,o),
(310,404,cs),
(310,408.667,o),
(308,411,o),
(304,411,cs),
(283.333,410.333,o),
(231.333,405.333,o),
(148,396,c),
(143,445,l),
(143,445,l)
);
},
{
closed = 1;
nodes = (
(187,404,o),
(184,372,o),
(184,332,cs),
(183,68,l),
(170,62,l),
(114,130,ls),
(112,132,o),
(112,135,o),
(114,139,cs),
(122.667,157.667,o),
(127.667,179.333,o),
(129,204,cs),
(129,245,ls),
(129,287.667,o),
(128.333,335.667,o),
(127,389,cs),
(125.667,425,o),
(114,468,o),
(90,496,c),
(101,508,l),
(193,428,l),
(193,428,l)
);
},
{
closed = 1;
nodes = (
(196,177.667,o),
(231.667,181,o),
(259,185,cs),
(280.333,187.667,o),
(295.833,191.5,o),
(305.5,196.5,cs),
(315.167,201.5,o),
(321,204.333,o),
(323,205,cs),
(326.333,207,o),
(329.333,206.667,o),
(332,204,cs),
(386,162,l),
(383,147,l),
(335.667,145,o),
(259.667,140,o),
(155,132,c),
(152,175,l),
(152,175,l)
);
},
{
closed = 1;
nodes = (
(727.667,474,o),
(768.667,479,o),
(780,481,cs),
(806,486.333,o),
(827,497,o),
(843,513,cs),
(846.333,516.333,o),
(849.667,516.333,o),
(853,513,cs),
(907,468,ls),
(909.667,465.333,o),
(909.667,462.333,o),
(907,459,cs),
(895,444,ls),
(894.333,443.333,o),
(893.167,441.833,o),
(891.5,439.5,cs),
(889.833,437.167,o),
(888.333,433.667,o),
(887,429,cs),
(881.667,401,o),
(866,231.667,o),
(866,201,c),
(815,191,l),
(819,243,o),
(822.667,379.667,o),
(824,425,cs),
(824,429.667,o),
(822,432,o),
(818,432,cs),
(797.333,431.333,o),
(745.333,426.333,o),
(662,417,c),
(657,466,l),
(657,466,l)
);
},
{
closed = 1;
nodes = (
(701,425,o),
(698,393,o),
(698,353,cs),
(697,96,l),
(684,90,l),
(628,158,ls),
(626,160,o),
(626,163,o),
(628,167,cs),
(636.667,185.667,o),
(641.667,207.333,o),
(643,232,cs),
(643,272,ls),
(643,310.667,o),
(642.333,356.667,o),
(641,410,cs),
(639.667,446,o),
(628,489,o),
(604,517,c),
(615,529,l),
(707,449,l),
(707,449,l)
);
},
{
closed = 1;
nodes = (
(710,205.667,o),
(745.667,209,o),
(773,213,cs),
(794.333,215.667,o),
(809.833,219.5,o),
(819.5,224.5,cs),
(829.167,229.5,o),
(835,232.333,o),
(837,233,cs),
(840.333,235,o),
(843.333,234.667,o),
(846,232,cs),
(900,190,l),
(897,175,l),
(849.667,173,o),
(773.667,168,o),
(669,160,c),
(666,203,l),
(666,203,l)
);
}
);
width = 1000;
}
);
unicode = 101328;
}
{
glyphname = u18BD5;
layers = (
{
layerId = master01;
shapes = (
{
closed = 1;
nodes = (
(433,449,o),
(660.333,467,o),
(699,475,cs),
(743,483.667,o),
(778.667,499.333,o),
(806,522,cs),
(809.333,525.333,o),
(812.333,525.333,o),
(815,522,cs),
(878,457,l),
(880.667,455,o),
(880.667,452.667,o),
(878,450,cs),
(853,428,ls),
(846.333,422,o),
(843,416.333,o),
(843,411,cs),
(833.667,168.333,o),
(822.667,43.333,o),
(808,-38,cs),
(801.333,-70,o),
(789.667,-106.333,o),
(779,-121,cs),
(775,-126.333,o),
(771.667,-127,o),
(769,-123,cs),
(701,-1,l),
(743,-8,l),
(757.667,48.667,o),
(769.667,191,o),
(779,419,cs),
(779,426.333,o),
(775.667,429.667,o),
(769,429,cs),
(722.333,424.333,o),
(589,413.333,o),
(369,396,cs),
(245,387,l),
(245,437,l),
(245,437,l)
);
},
{
closed = 1;
nodes = (
(358,-23.667,o),
(465,-17,o),
(587,-9,cs),
(657.667,-2.333,o),
(685,1,o),
(717,17,c),
(717.667,17,o),
(719,17.167,o),
(721,17.5,cs),
(723,17.833,o),
(724.667,17.333,o),
(726,16,c),
(794,-22,l),
(782,-50,l),
(707.333,-53.333,o),
(579,-60.667,o),
(397,-72,cs),
(372.333,-73.333,o),
(327.667,-76,o),
(263,-80,c),
(266,-29,l),
(266,-29,l)
);
},
{
closed = 1;
nodes = (
(231.667,455.667,o),
(370,561,o),
(450,669,cs),
(464.667,690.333,o),
(478,726.333,o),
(478,761,c),
(492,762,l),
(539,641,l),
(533.667,637.667,o),
(522.667,628.333,o),
(506,613,cs),
(486,596,ls),
(365.333,490,o),
(222,392.667,o),
(56,304,c),
(41,333,l),
(41,333,l)
);
},
{
closed = 1;
nodes = (
(286.333,403.333,o),
(284,375,o),
(284,345,cs),
(285,182,l),
(289,-139,l),
(275,-145,l),
(212,-77,ls),
(210,-75,o),
(210,-72,o),
(212,-68,cs),
(221.333,-46,o),
(226,-24.333,o),
(226,-3,cs),
(226,48,ls),
(226,149.333,o),
(224.333,259,o),
(221,377,cs),
(219.667,397.667,o),
(217,416.333,o),
(213,433,c),
(255,460,l),
(291,430,l),
(291,430,l)
);
},
{
closed = 1;
nodes = (
(386.333,213,o),
(472.667,219.333,o),
(520,226,cs),
(547.333,228.667,o),
(573.333,235.333,o),
(598,246,cs),
(600.667,247.333,o),
(603.667,247,o),
(607,245,cs),
(688,201,l),
(685,184,l),
(593,180,o),
(413.333,169.667,o),
(260,159,c),
(261,207,l),
(261,207,l)
);
}
);
width = 1000;
}
);
unicode = 101333;
}
{
glyphname = u18BDB;
layers = (
{
layerId = master01;
shapes = (
{
closed = 1;
nodes = (
(292,377.667,o),
(222,260.333,o),
(126,163,c),
(102,183,l),
(187.333,292.333,o),
(249,410.333,o),
(273,561,cs),
(275.667,576.333,o),
(277,592.333,o),
(277,609,cs),
(277,641,o),
(269,670.667,o),
(253,698,c),
(267,708,l),
(358,612,l),
(351.333,598,o),
(344,575,o),
(336,543,cs)
);
},
{
closed = 1;
nodes = (
(414.667,464,o),
(562.667,478,o),
(728,498,cs),
(766,502.667,o),
(798,518,o),
(824,544,cs),
(827.333,547.333,o),
(830.333,547.333,o),
(833,544,c),
(897,484,ls),
(900.333,481.333,o),
(900.333,478.333,o),
(897,475,cs),
(872,450,ls),
(867.149,445.149,o),
(862,442.398,o),
(862,433,c),
(832.667,233,o),
(775.667,39.333,o),
(725,-70,cs),
(707.667,-106,o),
(686,-135.667,o),
(666,-145,cs),
(664.667,-145.667,o),
(663,-146,o),
(661,-146,cs),
(657.667,-146,o),
(654.333,-144.333,o),
(651,-141,cs),
(600.333,-79,o),
(547.667,-24,o),
(493,24,c),
(509,47,l),
(647,-40,ls),
(650.333,-42,o),
(653.333,-43,o),
(656,-43,cs),
(660.667,-43,o),
(664.333,-39.333,o),
(667,-32,cs),
(721.667,86.667,o),
(775,273,o),
(795,441,cs),
(795,443,ls),
(795,449,o),
(791.333,451.667,o),
(784,451,cs),
(279,401,l),
(255,399,l),
(284,456,l),
(284,456,l)
);
},
{
closed = 1;
nodes = (
(279.333,-8.667,o),
(395.667,131,o),
(457,303,cs),
(487.667,389,o),
(510.333,491,o),
(525,609,cs),
(527,622.333,o),
(528,637.667,o),
(528,655,cs),
(528,701.667,o),
(518.333,737.333,o),
(499,762,c),
(510,773,l),
(615,682,l),
(604.333,660,o),
(596.667,636.333,o),
(592,611,cs),
(548,340.333,o),
(489.5,172,o),
(359.5,32,cs),
(294.5,-38,o),
(206,-101.333,o),
(94,-158,c),
(78,-130,l),
(78,-130,l)
);
}
);
width = 1000;
}
);
unicode = 101339;
}
{
glyphname = u18BF8;
layers = (
{
layerId = master01;
shapes = (
{
closed = 1;
nodes = (
(409,-57.667,o),
(543.833,52,o),
(620.5,188,cs),
(658.833,256,o),
(688.333,334.333,o),
(709,423,c),
(709.667,424.333,o),
(710,426.333,o),
(710,429,cs),
(710,436.333,o),
(705.333,439.333,o),
(696,438,cs),
(657.333,433.333,o),
(631.333,429.667,o),
(618,427,cs),
(602.667,423.667,o),
(589.333,419,o),
(578,413,cs),
(575.333,411,o),
(572.667,410,o),
(570,410,cs),
(567.333,410,o),
(565,411.333,o),
(563,414,cs),
(530,464,ls),
(527.333,467.333,o),
(526,470.333,o),
(526,473,cs),
(526,475.667,o),
(528,478,o),
(532,480,cs),
(548.667,489.333,o),
(561.667,507,o),
(571,533,cs),
(612,642,l),
(614,651,l),
(614,656.333,o),
(611,658.333,o),
(605,657,c),
(487,645,l),
(297,625,ls),
(253.667,620.333,o),
(219.333,615.333,o),
(194,610,c),
(117,665,l),
(122,678,l),
(150,674,o),
(178.333,672,o),
(207,672,cs),
(215,672,o),
(240,673,o),
(282,675,cs),
(379.333,683,o),
(498.333,696.667,o),
(545,702,cs),
(589.667,707.333,o),
(625.333,723.333,o),
(652,750,cs),
(655.333,753.333,o),
(658.333,753.333,o),
(661,750,cs),
(716,686,ls),
(719.333,682.667,o),
(719.333,679.333,o),
(716,676,cs),
(692,655,ls),
(686,649.667,o),
(681.333,643.333,o),
(678,636,cs),
(615,488,ls),
(614.333,486.667,o),
(614,485,o),
(614,483,cs),
(614,479,o),
(616.333,477.333,o),
(621,478,cs),
(664,483,ls),
(709.333,489.667,o),
(717.667,494.333,o),
(747,525,c),
(748.333,527,o),
(750.333,528,o),
(753,528,cs),
(755.667,528,o),
(757.667,527.333,o),
(759,526,cs),
(812,474,ls),
(814.667,472,o),
(816,470.333,o),
(816,469,cs),
(816,467.667,o),
(814.667,465.667,o),
(812,463,cs),
(795,446,ls),
(788.333,439.333,o),
(784,432,o),
(782,424,cs),
(732.667,229.333,o),
(651.5,84,o),
(497.5,-28,cs),
(420.5,-84,o),
(323,-128,o),
(205,-160,c),
(193,-131,l),
(193,-131,l)
);
},
{
closed = 1;
nodes = (
(407.667,582.333,o),
(401,559.333,o),
(397,536,cs),
(366.333,344,o),
(320,200.667,o),
(236,74,cs),
(194,10.667,o),
(140.667,-49.333,o),
(76,-106,c),
(57,-83,l),
(227.667,98.333,o),
(308.333,299.333,o),
(331,558,cs),
(332.333,568.667,o),
(334,582.333,o),
(334,601,cs),
(334,624.333,o),
(329.667,646.667,o),
(321,668,c),
(354,672,l),
(417,605,l),
(417,605,l)
);
},
{
closed = 1;
nodes = (
(468.667,220,o),
(596.667,117.333,o),
(658,72,cs),
(714,30,o),
(756.833,-0.333,o),
(786.5,-19,cs),
(845.833,-56.333,o),
(883,-68,o),
(959,-80,c),
(959,-107,l),
(801,-128,l),
(796,-128,ls),
(788,-128,o),
(782,-126,o),
(778,-122,cs),
(620.667,31.333,o),
(477,159.667,o),
(347,263,c),
(382,292,l),
(382,292,l)
);
},
{
closed = 1;
nodes = (
(215.333,236.667,o),
(173.333,230.333,o),
(118,221,c),
(37,277,l),
(42,290,l),
(82,286.667,o),
(114.333,285,o),
(139,285,cs),
(161.667,285,o),
(184,286,o),
(206,288,cs),
(237.333,290.667,o),
(259,292.333,o),
(271,293,cs),
(431,306.333,o),
(567,317.667,o),
(723,331,cs),
(791,336.333,o),
(829.333,344.333,o),
(864,363,cs),
(866,364.333,o),
(868.667,364,o),
(872,362,cs),
(965,310,l),
(962,296,l),
(781.333,285.333,o),
(542,266.667,o),
(244,240,cs)
);
}
);
width = 1000;
}
);
unicode = 101368;
}
{
glyphname = u18BFD;
layers = (
{
layerId = master01;
shapes = (
{
closed = 1;
nodes = (
(604.333,514.333,o),
(644.333,533.333,o),
(671,564,cs),
(674.333,568,o),
(678,568,o),
(682,564,cs),
(741,502,ls),
(745.667,497.333,o),
(745.667,492.667,o),
(741,488,cs),
(719,465,ls),
(714.333,460.333,o),
(711,453.667,o),
(709,445,cs),
(671,293,o),
(648.667,147.667,o),
(642,9,cs),
(640,-29,o),
(657.667,-49.333,o),
(695,-52,cs),
(719,-53.333,o),
(736.667,-54,o),
(748,-54,cs),
(788,-54,o),
(824.667,-50.667,o),
(858,-44,cs),
(876.667,-40.667,o),
(886,-31.667,o),
(886,-17,cs),
(893,207,l),
(916,207,l),
(924,132.333,o),
(931.667,72.167,o),
(939,26.5,cs),
(946.333,-19.167,o),
(954,-51.667,o),
(962,-71,cs),
(963.333,-75,o),
(964,-77.333,o),
(964,-78,cs),
(964,-81.333,o),
(962.333,-84,o),
(959,-86,cs),
(943.667,-94.667,o),
(910.667,-102.333,o),
(860,-109,cs),
(825.333,-113.667,o),
(788.667,-116,o),
(750,-116,cs),
(725.333,-116,o),
(701,-115,o),
(677,-113,cs),
(611.667,-107.667,o),
(579,-74,o),
(579,-12,cs),
(579,96,o),
(604,255,o),
(640,451,c),
(640,456,ls),
(640,464.667,o),
(636,468,o),
(628,466,cs),
(614,463.333,o),
(561.333,455.333,o),
(470,442,cs),
(374,427.333,o),
(304.333,416,o),
(261,408,cs),
(220.333,401.333,o),
(186.667,394.333,o),
(160,387,c),
(80,437,l),
(84,451,l),
(101.333,449.667,o),
(115,449,o),
(125,449,cs),
(156.333,449,o),
(196,452,o),
(244,458,cs),
(381.333,478,o),
(519,498.333,o),
(579,509,cs)
);
},
{
closed = 1;
nodes = (
(214,-28.333,o),
(306,110.333,o),
(346,277,cs),
(366,360.333,o),
(381.333,466.333,o),
(392,595,cs),
(392.667,601.667,o),
(393,612.667,o),
(393,628,cs),
(393,681.333,o),
(382.333,721,o),
(361,747,c),
(371,758,l),
(481,672,l),
(473.667,653.333,o),
(468,629.333,o),
(464,600,cs),
(429.333,302.667,o),
(399,158.333,o),
(287,21,cs),
(231,-47.667,o),
(148.667,-108.667,o),
(40,-162,c),
(26,-135,l),
(26,-135,l)
);
},
{
closed = 1;
nodes = (
(309,265.333,o),
(407,225.667,o),
(491,183,cs),
(497,180.333,o),
(500.333,176.667,o),
(501,172,cs),
(514,70,l),
(501,60,l),
(417,140.667,o),
(312.333,214,o),
(187,280,c),
(197,302,l),
(197,302,l)
);
}
);
width = 1000;
}
);
unicode = 101373;
}
{
glyphname = u18BFE;
layers = (
{
layerId = master01;
shapes = (
{
closed = 1;
nodes = (
(590,501.667,o),
(627.333,519.667,o),
(654,549,cs),
(657.333,553,o),
(661,553,o),
(665,549,cs),
(724,487,ls),
(728.667,482.333,o),
(728.667,477.667,o),
(724,473,cs),
(702,450,ls),
(697.333,445.333,o),
(694,438.667,o),
(692,430,cs),
(654,279.333,o),
(631.667,135.667,o),
(625,-1,cs),
(622.333,-39.667,o),
(636.667,-58.333,o),
(678,-61,cs),
(701.333,-63,o),
(724.333,-64,o),
(747,-64,cs),
(787.667,-64,o),
(824.667,-60.667,o),
(858,-54,cs),
(876.667,-50.667,o),
(886,-41.667,o),
(886,-27,cs),
(893,192,l),
(916,192,l),
(924,119.333,o),
(931.667,60.5,o),
(939,15.5,cs),
(946.333,-29.5,o),
(954,-61.667,o),
(962,-81,cs),
(963.333,-85,o),
(964,-87.333,o),
(964,-88,cs),
(964,-91.333,o),
(962.333,-94,o),
(959,-96,cs),
(943.667,-104.667,o),
(910.667,-112.333,o),
(860,-119,cs),
(823.333,-123.667,o),
(785,-126,o),
(745,-126,cs),
(716.333,-126,o),
(688,-125,o),
(660,-123,cs),
(594.667,-117.667,o),
(562,-84,o),
(562,-22,cs),
(562,84.667,o),
(587,244,o),
(623,436,c),
(623,441,ls),
(623,449.667,o),
(619,453,o),
(611,451,cs),
(277,395,ls),
(236.333,388.333,o),
(202.667,381.333,o),
(176,374,c),
(96,424,l),
(100,438,l),
(117.333,436.667,o),
(131,436,o),
(141,436,cs),
(172.333,436,o),
(212,439,o),
(260,445,cs),
(382.667,463.667,o),
(535.333,488.333,o),
(562,495,cs)
);
},
{
closed = 1;
nodes = (
(216.667,-33.667,o),
(308.333,106.333,o),
(347,273,cs),
(366.333,356.333,o),
(381.333,463.667,o),
(392,595,cs),
(392.667,601.667,o),
(393,612.667,o),
(393,628,cs),
(393,681.333,o),
(382.333,721,o),
(361,747,c),
(371,758,l),
(481,672,l),
(473.667,656,o),
(468,632,o),
(464,600,cs),
(428,298.667,o),
(398.833,153.333,o),
(287.5,16,cs),
(231.833,-52.667,o),
(149.333,-112,o),
(40,-162,c),
(26,-135,l),
(26,-135,l)
);
},
{
closed = 1;
nodes = (
(604,167,o),
(752,294,o),
(824,398,cs),
(840,422,o),
(851.333,458.667,o),
(850,496,c),
(863,499,l),
(913,380,l),
(905,374.667,o),
(894,365,o),
(880,351,cs),
(860,332,ls),
(741.333,220,o),
(616.667,124,o),
(462,40,c),
(444,67,l),
(444,67,l)
);
}
);
width = 1000;
}
);
unicode = 101374;
}
{
glyphname = u18BFF;
layers = (
{
layerId = master01;
shapes = (
{
closed = 1;
nodes = (
(591,441.667,o),
(628.333,459.333,o),
(655,490,cs),
(658.333,494,o),
(662,494,o),
(666,490,cs),
(725,428,ls),
(729.667,423.333,o),
(729.667,418.667,o),
(725,414,cs),
(703,391,ls),
(698.333,386.333,o),
(695,379.667,o),
(693,371,cs),
(671.667,272.333,o),
(651.333,138,o),
(642,6,cs),
(638.667,-32,o),
(656.333,-51.667,o),
(695,-53,cs),
(717,-55,o),
(738.333,-56,o),
(759,-56,cs),
(793,-56,o),
(826,-53,o),
(858,-47,cs),
(876.667,-43.667,o),
(886,-34.667,o),
(886,-20,cs),
(893,192,l),
(916,192,l),
(924,122,o),
(931.667,65.333,o),
(939,22,cs),
(946.333,-21.333,o),
(954,-52.333,o),
(962,-71,cs),
(963.333,-75,o),
(964,-77.333,o),
(964,-78,cs),
(964,-81.333,o),
(962.333,-84,o),
(959,-86,cs),
(936.333,-98,o),
(903.333,-106.333,o),
(860,-111,cs),
(814.667,-115.667,o),
(776.333,-118,o),
(745,-118,cs),
(723,-118,o),
(700.333,-117,o),
(677,-115,cs),
(611.667,-111,o),
(577.667,-76.667,o),
(579,-14,cs),
(581.667,82,o),
(601.333,238.333,o),
(624,377,c),
(624,382,ls),
(624,390.667,o),
(620,394,o),
(612,392,cs),
(517.333,376,o),
(404.667,355.333,o),
(274,330,cs),
(234.667,322,o),
(201.333,314,o),
(174,306,c),
(92,354,l),
(96,367,l),
(144,364.333,o),
(184,369.333,o),
(256,380,cs),
(364,394.667,o),
(523,425.667,o),
(563,435,cs)
);
},
{
closed = 1;
nodes = (
(225.333,-32,o),
(321,109.5,o),
(361,275.5,cs),
(381,358.5,o),
(396.333,465,o),
(407,595,cs),
(407.667,601.667,o),
(408,612.667,o),
(408,628,cs),
(408,681.333,o),
(397.333,721,o),
(376,747,c),
(386,758,l),
(493,672,l),
(484.333,647.333,o),
(479,623.333,o),
(477,600,cs),
(446.333,310.667,o),
(413,155.667,o),
(297,17,cs),
(239,-52.333,o),
(154.333,-111.333,o),
(43,-160,c),
(28,-132,l),
(28,-132,l)
);
},
{
closed = 1;
nodes = (
(204.333,629.333,o),
(259.667,598,o),
(303,568,cs),
(307.667,564.667,o),
(310,560.333,o),
(310,555,cs),
(314,457,l),
(300,450,l),
(244,526.667,o),
(185.333,591.333,o),
(124,644,c),
(137,662,l),
(137,662,l)
);
}
);
width = 1000;
}
);
unicode = 101375;
}
{
glyphname = u18C05;
layers = (
{
layerId = master01;
shapes = (
{
closed = 1;
nodes = (
(188,392.667,o),
(298.333,539.333,o),
(349,666,cs),
(357,688.667,o),
(361,708,o),
(361,724,cs),
(361,730.667,o),
(359.667,740.667,o),
(357,754,c),
(369,761,l),
(440,659,l),
(423.333,641.667,o),
(408.667,622.333,o),
(396,601,cs),
(309.333,465,o),
(210,359.667,o),
(66,245,c),
(48,266,l),
(48,266,l)
);
},
{
closed = 1;
nodes = (
(373.667,543,o),
(398.333,544.333,o),
(429,547,cs),
(450,548,ls),
(512,554,o),
(579,561.333,o),
(651,570,cs),
(712.333,576.667,o),
(747.333,584,o),
(778,604,cs),
(780.667,606,o),
(783.667,606,o),
(787,604,cs),
(881,558,l),
(878,543,l),
(734,529.667,o),
(603.333,516.333,o),
(486,503,cs),
(456,499,o),
(415.667,491.333,o),
(365,480,c),
(313,516,l),
(324,544,l),
(355,543,l),
(355,543,l)
);
},
{
closed = 1;
nodes = (
(642.667,331.667,o),
(677.667,346.667,o),
(701,370,cs),
(705,374,o),
(708.667,374,o),
(712,370,cs),
(774,306,ls),
(778,302.667,o),
(778,299,o),
(774,295,cs),
(754,277,ls),
(746.667,270.333,o),
(740.333,263.667,o),
(735,257,cs),
(604.333,67.667,o),
(396,-61.333,o),
(80,-156,c),
(69,-125,l),
(361,-15.667,o),
(551.333,110.667,o),
(654,264,cs),
(657.333,269.333,o),
(659,273.333,o),
(659,276,cs),
(659,280,o),
(654.333,281.333,o),
(645,280,cs),
(627.667,277.333,o),
(611.333,275.167,o),
(596,273.5,cs),
(580.667,271.833,o),
(567,270.333,o),
(555,269,cs),
(447,255,ls),
(411,251.667,o),
(370.333,244,o),
(325,232,c),
(245,286,l),
(250,299,l),
(284,298,ls),
(325.333,298,o),
(375.333,301.667,o),
(390,303,cs),
(410,305,ls),
(453.333,308.333,o),
(515.333,315,o),
(596,325,cs)
);
},
{
closed = 1;
nodes = (
(698.333,69.333,o),
(805.333,18,o),
(888,-28,cs),
(893.333,-30.667,o),
(896.333,-34.667,o),
(897,-40,cs),
(912,-148,l),
(895,-161,l),
(809.667,-73,o),
(681.667,26.667,o),
(555,104,c),
(567,126,l),
(567,126,l)
);
}
);
width = 1000;
}
);
unicode = 101381;
}
{
glyphname = u18C1D;
layers = (
{
layerId = master01;
shapes = (
{
closed = 1;
nodes = (
(706.333,585.667,o),
(707,588.667,o),
(707,592,cs),
(707,597.333,o),
(704,599.333,o),
(698,598,c),
(579,585,ls),
(536.333,580.333,o),
(502,574.667,o),
(476,568,c),
(408,623,l),
(415,636,l),
(439,631.333,o),
(464,629,o),
(490,629,cs),
(508.667,629,o),
(533.333,630.333,o),
(564,633,cs),
(600.667,637,o),
(626,640,o),
(640,642,cs),
(684,647.333,o),
(719.667,663.667,o),
(747,691,cs),
(750.333,694.333,o),
(753.333,694.333,o),
(756,691,cs),
(808,627,ls),
(811.333,623.667,o),
(811.333,620.333,o),
(808,617,cs),
(784,596,ls),
(778,590.667,o),
(773.333,584.333,o),
(770,577,cs),
(691,411,ls),
(690.333,409.667,o),
(690,408,o),
(690,406,cs),
(690,402,o),
(692.333,400.333,o),
(697,401,cs),
(729,403.667,o),
(762,407.333,o),
(796,412,cs),
(841.333,418.667,o),
(849.667,423.333,o),
(879,454,cs),
(882.333,458,o),
(886.333,458.333,o),
(891,455,c),
(948,403,ls),
(952,399.667,o),
(952,396,o),
(948,392,cs),
(931,375,ls),
(924.333,368.333,o),
(920,361,o),
(918,353,cs),
(912,326,ls),
(870.667,130,o),
(845,25.333,o),
(801,-64,cs),
(782.333,-102.667,o),
(760.667,-131.333,o),
(736,-150,c),
(732.667,-153.333,o),
(728.667,-155,o),
(724,-155,cs),
(718,-155,o),
(713.333,-152.333,o),
(710,-147,c),
(667.333,-93.667,o),
(622.667,-45.333,o),
(576,-2,c),
(592,20,l),
(713,-54,ls),
(716.333,-56,o),
(719,-57,o),
(721,-57,cs),
(725,-57,o),
(729,-53.667,o),
(733,-47,cs),
(783.667,35.667,o),
(812.667,156,o),
(850,352,c),
(850,357,ls),
(850,364.333,o),
(845.667,367.667,o),
(837,367,cs),
(785.667,363.667,o),
(738.667,358,o),
(696,350,cs),
(680.667,346.667,o),
(667.333,342,o),
(656,336,cs),
(653.333,334,o),
(650.667,333,o),
(648,333,cs),
(645.333,333,o),
(643,334.333,o),
(641,337,cs),
(606,388,ls),
(605.333,389.333,o),
(604.5,390.833,o),
(603.5,392.5,cs),
(602.5,394.167,o),
(602,395.667,o),
(602,397,cs),
(602,399.667,o),
(604,402,o),
(608,404,cs),
(621.333,411.333,o),
(634.333,429,o),
(647,457,cs),
(705,583,l),
(705,583,l)
);
},
{
closed = 1;
nodes = (
(494,290.667,o),
(563,254.333,o),
(611,223,cs),
(619,217.667,o),
(619,215.667,o),
(619,205,cs),
(616,106,l),
(603,103,l),
(552.333,169.667,o),
(464,260,o),
(392,312,c),
(404,332,l),
(404,332,l)
);
},
{
closed = 1;
nodes = (
(282,409.667,o),
(278.667,375.333,o),
(278,332,cs),
(274.667,185.333,o),
(273,23,o),
(273,-155,c),
(260,-161,l),
(194,-93,ls),
(192.667,-91.667,o),
(192.667,-88.667,o),
(194,-84,c),
(202,-67.333,o),
(207,-45.667,o),
(209,-19,cs),
(214.333,65,o),
(217,162.667,o),
(217,274,cs),
(217,305.333,o),
(216.333,343.667,o),
(215,389,cs),
(213.667,415.667,o),
(208.667,440,o),
(200,462,c),
(224,487,l),
(288,435,l),
(288,435,l)
);
},
{
closed = 1;
nodes = (
(119,374.667,o),
(226.667,533,o),
(284,657,cs),
(295.333,680.333,o),
(301,705.667,o),
(301,733,cs),
(301,739,o),
(300.333,748,o),
(299,760,c),
(311,765,l),
(379,660,l),
(368.333,648.667,o),
(353.667,630.333,o),
(335,605,c),
(240.333,459.667,o),
(119.667,313,o),
(41,245,c),
(19,268,l),
(19,268,l)
);
}
);
width = 1000;
}
);
unicode = 101405;
}
{
glyphname = u18C1F;
layers = (
{
layerId = master01;
shapes = (
{
closed = 1;
nodes = (
(674.667,599,o),
(713.667,615.333,o),
(739,638,cs),
(742.333,641.333,o),
(745.667,641.333,o),
(749,638,cs),
(807,578,l),
(810.333,575.333,o),
(810.333,572.333,o),
(807,569,cs),
(786,547,ls),
(785.333,546.333,o),
(783.167,544.167,o),
(779.5,540.5,cs),
(775.833,536.833,o),
(773.333,532.333,o),
(772,527,cs),
(698.667,219,o),
(580,21,o),
(364,-151,c),
(345,-127,l),
(531.667,53,o),
(647.667,266.333,o),
(697,529,c),
(697,534,ls),
(697,543.333,o),
(690,546.667,o),
(676,544,cs),
(618.667,536,o),
(535.333,524.333,o),
(462,507,c),
(399,560,l),
(404,572,l),
(418,570,o),
(433,569,o),
(449,569,cs),
(497.667,569,o),
(555.333,575.667,o),
(622,589,cs)
);
},
{
closed = 1;
nodes = (
(587,271,o),
(742.667,132.333,o),
(880,-17,c),
(883.333,-22.333,o),
(885,-26,o),
(885,-28,cs),
(876,-147,l),
(861,-149,l),
(750.333,25.667,o),
(560.333,235.667,o),
(395,377,c),
(413,399,l),
(413,399,l)
);
},
{
closed = 1;
nodes = (
(861.333,360.333,o),
(904,304.333,o),
(932,261,cs),
(934.667,257.667,o),
(936,254.667,o),
(936,252,cs),
(936,249.333,o),
(934.667,245.667,o),
(932,241,cs),
(892,159,l),
(878,162,l),
(862,236.667,o),
(822.667,346.667,o),
(784,416,c),
(804,429,l),
(804,429,l)
);
},
{
closed = 1;
nodes = (
(279,409.667,o),
(275.667,375.333,o),
(275,332,cs),
(271.667,185.333,o),
(270,23,o),
(270,-155,c),
(257,-161,l),
(191,-93,ls),
(189.667,-91.667,o),
(189.667,-88.667,o),
(191,-84,c),
(199,-67.333,o),
(204,-45.667,o),
(206,-19,cs),
(211.333,65,o),
(214,162.667,o),
(214,274,cs),
(214,305.333,o),
(213.333,343.667,o),
(212,389,cs),
(210.667,415.667,o),
(205.667,440,o),
(197,462,c),
(221,487,l),
(285,435,l),
(285,435,l)
);
},
{
closed = 1;
nodes = (
(128,376,o),
(244,537,o),
(300,657,cs),
(311.333,680.333,o),
(317,705.667,o),
(317,733,cs),
(317,739,o),
(316.333,748,o),
(315,760,c),
(327,765,l),
(395,660,l),
(381.667,645.333,o),
(366.667,627,o),
(350,605,c),
(258,465,o),
(131.333,317.333,o),
(38,240,c),
(16,264,l),
(16,264,l)
);
}
);
width = 1000;
}
);
unicode = 101407;
}
{
glyphname = u18C28;
layers = (
{
layerId = master01;
shapes = (
{
closed = 1;
nodes = (
(533,654.667,o),
(515,682,o),
(475,706,c),
(481,722,l),
(592,693,l),
(591,677,ls),
(591,659.667,o),
(596.667,636.667,o),
(606,602,cs),
(644.667,468.667,o),
(705.667,298,o),
(759,170,cs),
(796.333,80.667,o),
(822.833,24.5,o),
(875.5,-21.5,cs),
(901.833,-44.5,o),
(933.333,-59,o),
(970,-65,c),
(969,-90,l),
(791,-96,ls),
(781.667,-96,o),
(774.667,-90.333,o),
(772,-85,c),
(654.667,262.333,o),
(579,494.667,o),
(545,612,cs)
);
},
{
closed = 1;
nodes = (
(310,172,o),
(212,5.667,o),
(60,-137,c),
(36,-114,l),
(186.667,60.667,o),
(274.667,240.333,o),
(328,483,cs),
(332,504.333,o),
(334,524,o),
(334,542,cs),
(334,569.333,o),
(329.333,592.667,o),
(320,612,c),
(334,621,l),
(427,505,l),
(411,477,o),
(400.667,458.667,o),
(386,412,cs)
);
}
);
width = 1000;
}
);
unicode = 101416;
}
{
glyphname = u18C33;
layers = (
{
layerId = master01;
shapes = (
{
closed = 1;
nodes = (
(191.667,346,o),
(292.667,506,o),
(314,586,cs),
(317.333,599.333,o),
(319,613,o),
(319,627,cs),
(319,644.333,o),
(317,658.333,o),
(313,669,c),
(329,677,l),
(404,570,l),
(388.667,549.333,o),
(371.333,524.333,o),
(352,495,cs),
(282.667,388.333,o),
(213.667,305.667,o),
(107,211,c),
(85,234,l),
(85,234,l)
);
},
{
closed = 1;
nodes = (
(642.667,633.333,o),
(741,523,o),
(853,375,cs),
(855.667,371,o),
(856.667,367.667,o),
(856,365,cs),
(835,253,l),
(819,253,l),
(733.667,422.333,o),
(640,563,o),
(504,719,c),
(528,740,l),
(528,740,l)
);
},
{
closed = 1;
nodes = (
(405.333,363.333,o),
(372.667,356.333,o),
(340,347,c),
(261,402,l),
(267,414,l),
(297,410,o),
(324,408,o),
(348,408,cs),
(368,408,o),
(389,409,o),
(411,411,cs),
(453,414.333,o),
(495.333,419.333,o),
(538,426,cs),
(570,430,o),
(591.667,440.667,o),
(621,470,cs),
(623.667,472.667,o),
(626.333,472.333,o),
(629,469,cs),
(679,406,l),
(683,402,o),
(682,398.333,o),
(678,397,cs),
(658,393,o),
(643.667,382,o),
(621,362,cs),
(606.333,348.667,o),
(541.333,277,o),
(496,225,c),
(478,240,l),
(514.667,298.667,o),
(541.667,343.333,o),
(559,374,c),
(563,379.333,o),
(560.667,384.333,o),
(554,383,cs),
(514,378.333,o),
(475.333,373.333,o),
(438,368,cs)
);
},
{
closed = 1;
nodes = (
(535.667,200.333,o),
(534,186,o),
(534,174,cs),
(534,164.667,o),
(534.333,156.667,o),
(535,150,cs),
(539.667,94.667,o),
(542,38,o),
(542,-20,cs),
(542,-42.667,o),
(540.667,-61.667,o),
(538,-77,cs),
(531.333,-115.667,o),
(521.333,-134.667,o),
(504,-160,cs),
(500,-164.667,o),
(495.667,-165,o),
(491,-161,cs),
(443.667,-122.333,o),
(382,-83,o),
(306,-43,c),
(318,-19,l),
(458,-63,ls),
(459.333,-63.667,o),
(461,-64,o),
(463,-64,cs),
(469.667,-64,o),
(473.667,-59.667,o),
(475,-51,cs),
(478.333,-21.667,o),
(480,12.333,o),
(480,51,cs),
(480,97.667,o),
(477.333,138.333,o),
(476,153,cs),
(472,203.667,o),
(454.667,242,o),
(424,268,c),
(434,281,l),
(539,217,l),
(539,217,l)
);
},
{
closed = 1;
nodes = (
(208.333,92.667,o),
(167.333,87,o),
(128,79,c),
(51,134,l),
(56,147,l),
(94.667,143.667,o),
(126,142,o),
(150,142,cs),
(172,142,o),
(194,143,o),
(216,145,cs),
(310,150.333,o),
(442,161,o),
(612,177,cs),
(708,186,ls),
(780,192.667,o),
(807,196.333,o),
(839,215,cs),
(841.667,216.333,o),
(844.667,216,o),
(848,214,cs),
(940,166,l),
(937,151,l),
(729,137.667,o),
(500.333,119.333,o),
(251,96,cs)
);
}
);
width = 1000;
}
);
unicode = 101427;
}
{
glyphname = u18C3F;
layers = (
{
layerId = master01;
shapes = (
{
closed = 1;
nodes = (
(601,553.667,o),
(648.333,518.667,o),
(707,476,cs),
(804.333,406.667,o),
(866.333,378.333,o),
(961,369,c),
(961,342,l),
(800,316,ls),
(797.333,315.333,o),
(793.667,315,o),
(789,315,cs),
(783,315,o),
(778.333,317,o),
(775,321,cs),
(662.333,434.333,o),
(561,529.333,o),
(471,606,c),
(493,635,l),
(565,581,l),
(565,581,l)
);
},
{
closed = 1;
nodes = (
(269.667,408,o),
(404.667,545.667,o),
(464,689,cs),
(470.667,703.667,o),
(474,720,o),
(474,738,cs),
(474,748,o),
(472.333,759,o),
(469,771,c),
(483,777,l),
(564,669,l),
(548,655.667,o),
(522.667,626.333,o),
(504,601,cs),
(400.667,457.667,o),
(257.667,339.667,o),
(75,247,c),
(59,276,l),
(59,276,l)
);
},
{
closed = 1;
nodes = (
(471.333,15.333,o),
(474,94.667,o),
(474,176,cs),
(473,225,ls),
(471.667,261,o),
(460.667,302.667,o),
(438,340,c),
(450,351,l),
(544,266,l),
(538,240.667,o),
(534.667,206.333,o),
(534,163,cs),
(531.333,79,o),
(530,5.667,o),
(530,-57,c),
(466,-62,l),
(466,-62,l)
);
},
{
closed = 1;
nodes = (
(798.667,145.667,o),
(792.333,120.667,o),
(789,90,cs),
(783,38,o),
(774,-13.667,o),
(762,-65,cs),
(751.333,-103.667,o),
(731.667,-148.333,o),
(717,-163,c),
(713.667,-165,o),
(711.5,-166,o),
(710.5,-166,cs),
(709.5,-166,o),
(708.667,-164.667,o),
(708,-162,cs),
(668,-33,l),
(679.333,-36.333,o),
(686.833,-39.167,o),
(690.5,-41.5,cs),
(694.167,-43.833,o),
(696.333,-45,o),
(697,-45,cs),
(697.667,-45,o),
(698,-44.167,o),
(698,-42.5,cs),
(698,-40.833,o),
(698.667,-38.667,o),
(700,-36,cs),
(713.333,-1.333,o),
(726.667,69,o),
(732,129,cs),
(733,150,ls),
(733,183.333,o),
(725.667,211.333,o),
(703,238,c),
(715,250,l),
(808,165,l),
(808,165,l)
);
},
{
closed = 1;
nodes = (
(610,-84.667,o),
(487,-93,o),
(357,-103,cs),
(323.667,-105.667,o),
(302.667,-110.333,o),
(294,-117,cs),
(269,-134,ls),
(264.333,-137.333,o),
(261,-137.333,o),
(259,-134,cs),
(215,-75,ls),
(212.333,-71,o),
(212.333,-67.667,o),
(215,-65,cs),
(229.667,-53,o),
(242,-20,o),
(242,24,cs),
(242,56,o),
(238.667,94.333,o),
(236,117,cs),
(228,167.667,o),
(214.333,199,o),
(189,227,c),
(199,240,l),
(305,167,l),
(299.667,143.667,o),
(297,119,o),
(297,93,cs),
(297,89,o),
(298.333,51,o),
(301,-21,cs),
(302,-42,ls),
(303.333,-54,o),
(305,-57,o),
(313,-57,cs),
(337.667,-55.667,o),
(364.5,-53.667,o),
(393.5,-51,cs),
(422.5,-48.333,o),
(442,-46.667,o),
(452,-46,cs),
(489.333,-42,o),
(517.333,-39.333,o),
(536,-38,cs),
(604,-31.333,o),
(634,-27.667,o),
(666,-9,cs),
(668.667,-7.667,o),
(671.667,-8,o),
(675,-10,cs),
(732,-41,l),
(726,-78,l),
(726,-78,l)
);
}
);
width = 1000;
}
);
unicode = 101439;
}
{
glyphname = u18C45;
layers = (
{
layerId = master01;
shapes = (
{
closed = 1;
nodes = (
(299,273.667,o),
(345.333,243,o),
(394,207,c),
(398,203,o),
(400,199,o),
(400,195,cs),
(396,107,l),
(377,99,l),
(345,157.667,o),
(294.333,227.333,o),
(241,282,c),
(255,299,l),
(255,299,l)
);
},
{
closed = 1;
nodes = (
(140.333,168,o),
(231.333,336,o),
(262,448,cs),
(264.667,456.667,o),
(266,468,o),
(266,482,cs),
(266,505.333,o),
(262,525.333,o),
(254,542,c),
(268,551,l),
(354,453,l),
(341.333,437,o),
(327.333,414,o),
(312,384,cs),
(254.667,266.667,o),
(154,119.333,o),
(62,18,c),
(39,36,l),
(39,36,l)
);
},
{
closed = 1;
nodes = (
(462.333,89.667,o),
(465,248,o),
(465,430,cs),
(465,508.667,o),
(464,578,o),
(462,638,cs),
(460.667,679.333,o),
(448.333,726,o),
(419,758,c),
(430,770,l),
(536,684,l),
(529.333,655.333,o),
(526,621,o),
(526,581,cs),
(526,377,o),
(524.333,215.333,o),
(523,106,cs),
(521.667,39.333,o),
(521,-10,o),
(521,-42,c),
(457,-45,l),
(457,-45,l)
);
},
{
closed = 1;
nodes = (
(791.333,274.667,o),
(852.667,234.667,o),
(886,208,cs),
(890,204,o),
(892,200,o),
(892,196,cs),
(888,97,l),
(869,89,l),
(830.333,153,o),
(756.333,241,o),
(687,309,c),
(702,328,l),
(702,328,l)
);
},
{
closed = 1;
nodes = (
(607.667,230.667,o),
(686,380,o),
(706,464,cs),
(709.333,476,o),
(711,490.333,o),
(711,507,cs),
(711,526.333,o),
(708,543.333,o),
(702,558,c),
(716,565,l),
(797,466,l),
(788.333,454.667,o),
(776,435.333,o),
(760,408,cs),
(697.333,301.333,o),
(629.333,193.667,o),
(540,95,c),
(517,116,l),
(517,116,l)
);
},
{
closed = 1;
nodes = (
(203.667,-90.667,o),
(161.333,-96.333,o),
(108,-105,c),
(28,-45,l),
(33,-33,l),
(71,-37.667,o),
(107,-40,o),
(141,-40,cs),
(153.667,-40,o),
(172.667,-39.333,o),
(198,-38,cs),
(400.667,-26,o),
(556.333,-16.667,o),
(731,-6,cs),
(801.667,-2,o),
(836.333,4.333,o),
(871,23,cs),
(873,24.333,o),
(875.667,24,o),
(879,22,cs),
(975,-33,l),
(972,-47,l),
(658.667,-60.333,o),
(484.333,-69.333,o),
(235,-88,cs)
);
}
);
width = 1000;
}
);
unicode = 101445;
}
{
glyphname = u18C48;
layers = (
{
layerId = master01;
shapes = (
{
closed = 1;
nodes = (
(293.333,461.333,o),
(340,429.667,o),
(392,391,c),
(396,387,o),
(398,383,o),
(398,379,cs),
(394,301,l),
(375,293,l),
(341.667,351.667,o),
(292.333,421.667,o),
(239,475,c),
(252,486,l),
(252,486,l)
);
},
{
closed = 1;
nodes = (
(178.667,360.333,o),
(247,498.667,o),
(275,622,cs),
(277,632,o),
(278,642,o),
(278,652,cs),
(278,675.333,o),
(273.333,696.333,o),
(264,715,c),
(277,725,l),
(366,630,l),
(351.333,608.667,o),
(338.333,585,o),
(327,559,cs),
(275,433,o),
(197.333,309.667,o),
(94,189,c),
(70,207,l),
(70,207,l)
);
},
{
closed = 1;
nodes = (
(780.667,441,o),
(842,396.333,o),
(880,363,cs),
(883.333,359.667,o),
(885,355.667,o),
(885,351,cs),
(878,259,l),
(859,252,l),
(821.667,321.333,o),
(748,412.667,o),
(680,478,c),
(696,497,l),
(696,497,l)
);
},
{
closed = 1;
nodes = (
(651,459,o),
(688.667,556,o),
(702,616,cs),
(704,625.333,o),
(705,637,o),
(705,651,cs),
(705,674.333,o),
(701.333,693.667,o),
(694,709,c),
(707,717,l),
(789,621,l),
(773,595,o),
(761.667,575.333,o),
(755,562,cs),
(724.333,495.333,o),
(676,409.667,o),
(624,339,c),
(603,371,l),
(603,371,l)
);
},
{
closed = 1;
nodes = (
(477.333,318.333,o),
(342.333,151.333,o),
(93,26,c),
(78,56,l),
(314,197.333,o),
(436.667,369,o),
(482,625,cs),
(484,636.333,o),
(485,648.667,o),
(485,662,cs),
(485,694.667,o),
(477.333,726.333,o),
(462,757,c),
(476,768,l),
(565,679,l),
(553,652.333,o),
(548,630.333,o),
(536,577,cs)
);
},
{
closed = 1;
nodes = (
(598,416.333,o),
(676.333,308.333,o),
(737,235,cs),
(795.667,163,o),
(844,140,o),
(944,124,c),
(944,97,l),
(756,87,ls),
(748.667,87,o),
(744,89.667,o),
(742,95,c),
(682.667,199.667,o),
(598.667,336.333,o),
(490,505,c),
(502,559,l),
(502,559,l)
);
},
{
closed = 1;
nodes = (
(309,-37,o),
(427.333,101.667,o),
(466,207,cs),
(472.667,225,o),
(476,244,o),
(476,264,cs),
(476,272.667,o),
(474.667,282.333,o),
(472,293,c),
(488,301,l),
(553,196,l),
(548.333,190,o),
(534,171.333,o),
(510,140,cs),
(492,115,ls),
(417.333,13.667,o),
(299.667,-97,o),
(189,-161,c),
(169,-133,l),
(169,-133,l)
);
},
{
closed = 1;
nodes = (
(547.333,107.667,o),
(635.333,41,o),
(748,-49,c),
(752,-53,o),
(754,-57,o),
(754,-61,cs),
(746,-160,l),
(727,-168,l),
(671,-81.333,o),
(565.667,38.667,o),
(467,128,c),
(484,151,l),
(484,151,l)
);
}
);
width = 1000;
}
);
unicode = 101448;
}
{
glyphname = u18C51;
layers = (
{
layerId = master01;
shapes = (
{
closed = 1;
nodes = (
(260.333,641.667,o),
(234,651,o),
(198,651,cs),
(186.667,651,o),
(174.667,650,o),
(162,648,c),
(156,661,l),
(257,713,l),
(274.333,694.333,o),
(295,676.667,o),
(319,660,cs),
(476.333,546.667,o),
(576,476.333,o),
(618,449,cs),
(775.333,343.667,o),
(830.333,316.667,o),
(937,298,c),
(937,268,l),
(770,252,l),
(766,252,ls),
(758.667,252,o),
(752.667,254,o),
(748,258,cs),
(621.333,370,o),
(447,507,o),
(287,623,cs)
);
},
{
closed = 1;
nodes = (
(336.667,347.333,o),
(550,532.667,o),
(658,698,cs),
(667.333,712,o),
(672,726.667,o),
(672,742,cs),
(672,750.667,o),
(670.667,758.667,o),
(668,766,c),
(683,773,l),
(752,677,l),
(736,667,o),
(711.667,643.667,o),
(679,607,cs),
(528.333,437.667,o),
(339.333,297.333,o),
(112,186,c),
(94,218,l),
(94,218,l)
);
},
{
closed = 1;
nodes = (
(493,77,o),
(494,123.667,o),
(494,137,cs),
(494,165,o),
(493.667,185,o),
(493,197,cs),
(491.667,234.333,o),
(481.667,270.333,o),
(463,305,c),
(478,316,l),
(573,243,l),
(567,217.667,o),
(563.667,183.333,o),
(563,140,cs),
(561.667,73.333,o),
(561,13.667,o),
(561,-39,c),
(490,-39,l),
(491,-3,l),
(491,-3,l)
);
},
{
closed = 1;
nodes = (
(278.667,-85.333,o),
(237.667,-90,o),
(193,-98,c),
(118,-40,l),
(123,-29,l),
(162.333,-33.667,o),
(199,-36,o),
(233,-36,cs),
(243.667,-36,o),
(260.333,-35.333,o),
(283,-34,cs),
(383.667,-30,o),
(489.667,-23.667,o),
(601,-15,cs),
(684,-9,ls),
(754.667,-5,o),
(783,-2.667,o),
(815,16,c),
(817.667,18.667,o),
(820.667,18.667,o),
(824,16,c),
(914,-35,l),
(911,-50,l),
(742.333,-56.667,o),
(544,-68,o),
(316,-84,cs)
);
}
);
width = 1000;
}
);
unicode = 101457;
}
{
glyphname = u18C5E;
layers = (
{
layerId = master01;
shapes = (
{
closed = 1;
nodes = (
(227.667,683.333,o),
(282,642.667,o),
(332,598,cs),
(336,594,o),
(337,589.333,o),
(335,584,cs),
(313,500,l),
(296,496,l),
(262.667,562,o),
(215.333,631,o),
(154,703,c),
(169,720,l),
(169,720,l)
);
},
{
closed = 1;
nodes = (
(319.333,392,o),
(233.667,282.667,o),
(165,188,cs),
(159.667,181.333,o),
(155,178,o),
(151,178,cs),
(146.333,178,o),
(142.667,182,o),
(140,190,cs),
(87,336,l),
(104,348,l),
(156,304,ls),
(158,302,o),
(160.667,301,o),
(164,301,cs),
(167.333,301,o),
(170,302,o),
(172,304,cs),
(208,340,o),
(243,376,o),
(277,412,cs),
(400,537,l),
(422,516,l),
(422,516,l)
);
},
{
closed = 1;
nodes = (
(325.333,219,o),
(321.667,184.667,o),
(321,144,cs),
(318.333,53.333,o),
(317,-29.333,o),
(317,-104,cs),
(317,-146,l),
(305,-152,l),
(237,-84,ls),
(235.667,-82.667,o),
(235.667,-79.667,o),
(237,-75,c),
(249.667,-50.333,o),
(256.667,-28.667,o),
(258,-10,cs),
(262,64,o),
(264,121.333,o),
(264,162,cs),
(263,201,ls),
(261.667,238.333,o),
(250.333,274.333,o),
(229,309,c),
(244,320,l),
(332,247,l),
(332,247,l)
);
},
{
closed = 1;
nodes = (
(648.667,463.667,o),
(614.667,456.667,o),
(582,448,c),
(503,499,l),
(508,512,l),
(518,510.667,o),
(533.333,510,o),
(554,510,cs),
(590,510,o),
(628,512.667,o),
(668,518,cs),
(708,523.333,o),
(756.667,532,o),
(778,536,cs),
(819.333,544.667,o),
(852.333,561.333,o),
(877,586,cs),
(880.333,589.333,o),
(883.333,589.333,o),
(886,586,cs),
(938,522,ls),
(941.333,518.667,o),
(941.333,515.333,o),
(938,512,cs),
(914,491,ls),
(906,484.333,o),
(904,482,o),
(904,474,cs),
(897.333,299.333,o),
(856,3,o),
(820,-89,cs),
(808,-121,o),
(788.667,-142.333,o),
(770,-153,cs),
(767.333,-155,o),
(764.333,-156,o),
(761,-156,cs),
(757.667,-156,o),
(755.333,-155,o),
(754,-153,cs),
(712,-97,o),
(644.667,-37.667,o),
(552,25,c),
(566,48,l),
(743,-48,ls),
(746.333,-50,o),
(749.333,-51,o),
(752,-51,cs),
(758,-51,o),
(762.667,-46,o),
(766,-36,cs),
(794,49.333,o),
(836,330.667,o),
(840,480,cs),
(840,488.667,o),
(836.667,492.667,o),
(830,492,cs),
(793.333,487.333,o),
(757.333,481.667,o),
(722,475,cs),
(684,469,l),
(684,469,l)
);
},
{
closed = 1;
nodes = (
(546.333,329.667,o),
(608.667,286,o),
(672,234,cs),
(675.333,231.333,o),
(676.667,227,o),
(676,221,cs),
(658,136,l),
(641,131,l),
(599.667,199,o),
(539,277.667,o),
(471,347,c),
(485,365,l),
(485,365,l)
);
},
{
closed = 1;
nodes = (
(466.333,454,o),
(549,589.667,o),
(569,667,cs),
(573.667,685.667,o),
(576,701.667,o),
(576,715,cs),
(576,732.333,o),
(573.333,747.667,o),
(568,761,c),
(582,767,l),
(659,664,l),
(647.667,652.667,o),
(633,632.667,o),
(615,604,cs),
(563,522.667,o),
(484.667,419.333,o),
(390,330,c),
(369,350,l),
(369,350,l)
);
}
);
width = 1000;
}
);
unicode = 101470;
}
{
glyphname = u18C64;
layers = (
{
layerId = master01;
shapes = (
{
closed = 1;
nodes = (
(272,618.667,o),
(342.333,557.667,o),
(393,501,cs),
(397.667,495,o),
(399,487,o),
(397,477,cs),
(377,373,l),
(362,373,l),
(319.333,467.667,o),
(239.333,590.333,o),
(166,665,c),
(182,684,l),
(182,684,l)
);
},
{
closed = 1;
nodes = (
(588.667,427.667,o),
(680.333,574,o),
(703,646,cs),
(709.667,666,o),
(713,684.667,o),
(713,702,cs),
(713,712,o),
(712,721.333,o),
(710,730,c),
(725,737,l),
(805,631,l),
(795.667,621,o),
(778.333,599.667,o),
(753,567,cs),
(670.333,455,o),
(627.667,402.333,o),
(521,305,c),
(498,329,l),
(498,329,l)
);
},
{
closed = 1;
nodes = (
(219.333,280.667,o),
(177,274.667,o),
(123,266,c),
(43,325,l),
(48,338,l),
(86,333.333,o),
(122,331,o),
(156,331,cs),
(168.667,331,o),
(187.667,331.667,o),
(213,333,cs),
(345,342,ls),
(446.333,348,o),
(572,356.333,o),
(722,367,cs),
(794,372.333,o),
(827.333,378.333,o),
(862,397,cs),
(864,398.333,o),
(866.667,398,o),
(870,396,cs),
(966,342,l),
(963,328,l),
(723,316,o),
(487.333,302.667,o),
(250,284,cs)
);
},
{
closed = 1;
nodes = (
(565.667,129.667,o),
(582.167,117.5,o),
(602.5,102.5,cs),
(622.833,87.5,o),
(649,68.667,o),
(681,46,cs),
(786.333,-28.667,o),
(851,-59.667,o),
(951,-73,c),
(951,-100,l),
(787,-126,ls),
(784.333,-126.667,o),
(780.667,-127,o),
(776,-127,cs),
(770,-127,o),
(765.333,-125,o),
(762,-121,cs),
(658,-16.333,o),
(556.667,77.333,o),
(458,160,c),
(480,193,l),
(553,139,l),
(553,139,l)
);
},
{
closed = 1;
nodes = (
(545.333,234.667,o),
(518.333,204.333,o),
(501,179,cs),
(395.667,29.667,o),
(246.667,-91.333,o),
(60,-166,c),
(47,-137,l),
(259,-30.333,o),
(398.667,116.333,o),
(460,267,cs),
(465.333,279.667,o),
(468.333,294,o),
(469,310,c),
(512,311,l),
(560,248,l),
(560,248,l)
);
}
);
width = 1000;
}
);
unicode = 101476;
}
{
glyphname = u18C71;
layers = (
{
layerId = master01;
shapes = (
{
closed = 1;
nodes = (
(471.333,382.667,o),
(334.333,259.333,o),
(85,166,c),
(72,195,l),
(310.667,303,o),
(433.667,433,o),
(479,625,cs),
(481.667,635,o),
(483,647.667,o),
(483,663,cs),
(483,700.333,o),
(475,731.333,o),
(459,756,c),
(473,767,l),
(569,671,l),
(563,660.333,o),
(555,639,o),
(545,607,cs),
(534,572,l),
(534,572,l)
);
},
{
closed = 1;
nodes = (
(661.667,492.333,o),
(725.333,566.333,o),
(756,621,cs),
(770.667,647,o),
(778,674,o),
(778,702,c),
(793,705,l),
(846,588,l),
(829.333,578,o),
(807.667,561.333,o),
(781,538,cs),
(723.667,487.333,o),
(665.333,445,o),
(606,411,c),
(587,435,l),
(587,435,l)
);
},
{
closed = 1;
nodes = (
(630.333,443,o),
(684.667,400,o),
(732,364,cs),
(800,312,o),
(831.167,290.667,o),
(874.5,276,cs),
(896.167,268.667,o),
(922,263.667,o),
(952,261,c),
(954,235,l),
(808,208,l),
(800,207,ls),
(794.667,207,o),
(789.333,209.667,o),
(784,215,cs),
(684,325.667,o),
(586.333,416.333,o),
(473,515,c),
(489,557,l),
(569,493,l),
(569,493,l)
);
},
{
closed = 1;
nodes = (
(531,228.667,o),
(527.667,194.333,o),
(527,151,cs),
(527,141.667,o),
(526.667,134.667,o),
(526,130,cs),
(524.667,72.667,o),
(522,-64.333,o),
(522,-151,c),
(510,-157,l),
(448,-89,ls),
(446.667,-87.667,o),
(446.667,-84.667,o),
(448,-80,cs),
(455.333,-62.667,o),
(460,-41,o),
(462,-15,cs),
(468.667,91,o),
(471.333,165.333,o),
(470,208,cs),
(468.667,245.333,o),
(458.667,281.333,o),
(440,316,c),
(455,327,l),
(537,254,l),
(537,254,l)
);
},
{
closed = 1;
nodes = (
(327.667,68.333,o),
(286.667,63,o),
(246,55,c),
(172,113,l),
(178,126,l),
(222,120.667,o),
(258.333,118,o),
(287,118,cs),
(297.667,118,o),
(313.667,118.667,o),
(335,120,cs),
(399.667,122.667,o),
(444.333,125,o),
(469,127,cs),
(490,129,ls),
(623.638,136.224,o),
(694.837,138.6,o),
(731,162,c),
(734.333,163.333,o),
(737.333,163,o),
(740,161,cs),
(831,109,l),
(828,94,l),
(641.333,88.667,o),
(577,84.333,o),
(369,71,cs)
);
},
{
closed = 1;
nodes = (
(245.667,635.667,o),
(293.667,583,o),
(333,525,c),
(335,523,o),
(336,519.667,o),
(336,515,cs),
(336,511,o),
(335,506.333,o),
(333,501,cs),
(305,403,l),
(289,402,l),
(270.333,491.333,o),
(224.333,594,o),
(171,666,c),
(189,683,l),
(189,683,l)
);
}
);
width = 1000;
}
);
unicode = 101489;
}
{
glyphname = u18C79;
layers = (
{
layerId = master01;
shapes = (
{
closed = 1;
nodes = (
(227.333,349.667,o),
(186.667,343.333,o),
(146,334,c),
(69,392,l),
(74,405,l),
(102.667,402.333,o),
(131,401,o),
(159,401,cs),
(183.667,401,o),
(208,402,o),
(232,404,cs),
(416,416,o),
(570.333,428,o),
(695,440,cs),
(764.333,448,o),
(792,452.333,o),
(824,471,cs),
(826.667,472.333,o),
(828.667,472.5,o),
(830,471.5,cs),
(831.333,470.5,o),
(832.333,470,o),
(833,470,c),
(925,417,l),
(922,402,l),
(720,390,o),
(502,373.667,o),
(268,353,cs)
);
},
{
closed = 1;
nodes = (
(374,139.667,o),
(370.333,139.667,o),
(367,143,c),
(314,212,ls),
(311.333,216,o),
(311.333,219.333,o),
(314,222,cs),
(344.667,246,o),
(352.667,264.667,o),
(378,330,cs),
(398,380.667,o),
(482.333,628.333,o),
(497,683,cs),
(499,691,o),
(500,700.667,o),
(500,712,cs),
(500,732.667,o),
(496,751.333,o),
(488,768,c),
(501,776,l),
(577,684,l),
(565.667,671.333,o),
(555.333,652.667,o),
(546,628,cs),
(512.667,542.667,o),
(426.333,293.333,o),
(409,236,cs),
(408,231,ls),
(408,227,o),
(412.333,225.333,o),
(421,226,cs),
(507.667,232,o),
(578.333,238.667,o),
(633,246,cs),
(671.667,251.333,o),
(697.333,265.333,o),
(724,292,cs),
(727.333,295.333,o),
(730.333,295.333,o),
(733,292,c),
(797,232,ls),
(800.333,229.333,o),
(800.333,226.333,o),
(797,223,cs),
(772,198,ls),
(764.266,190.266,o),
(762,185.351,o),
(762,181,c),
(743.333,106.333,o),
(695,-18.333,o),
(647,-93,cs),
(626.333,-125.667,o),
(606.667,-147.667,o),
(588,-159,cs),
(586.667,-159.667,o),
(585,-160,o),
(583,-160,cs),
(579.667,-160,o),
(576.333,-158.333,o),
(573,-155,cs),
(525,-105.667,o),
(476.667,-61.667,o),
(386,1,c),
(399,23,l),
(569,-61,ls),
(574.333,-63.667,o),
(578.333,-65,o),
(581,-65,cs),
(585,-65,o),
(589.333,-62,o),
(594,-56,cs),
(639.333,6.667,o),
(678.667,98.333,o),
(700,189,cs),
(701,192,l),
(701,197.333,o),
(695.667,200.333,o),
(689,199,c),
(429,175,ls),
(421,174.333,o),
(414,171.333,o),
(408,166,cs),
(378,143,l),
(378,143,l)
);
},
{
closed = 1;
nodes = (
(642.333,550,o),
(699.667,610,o),
(729,662,cs),
(745.667,692,o),
(754.667,718.667,o),
(756,742,c),
(771,744,l),
(818,622,l),
(801.333,614,o),
(778.667,598.667,o),
(750,576,cs),
(696,533.333,o),
(641.667,498.333,o),
(587,471,c),
(569,498,l),
(569,498,l)
);
},
{
closed = 1;
nodes = (
(249,666,o),
(298.667,620.333,o),
(336,575,cs),
(338.667,572.333,o),
(340,568,o),
(340,562,cs),
(340,560,o),
(339.333,555.667,o),
(338,549,cs),
(311,453,l),
(295,452,l),
(269.667,536,o),
(223.333,631.667,o),
(170,697,c),
(187,712,l),
(187,712,l)
);
}
);
width = 1000;
}
);
unicode = 101497;
}
{
glyphname = u18C7B;
layers = (
{
layerId = master01;
shapes = (
{
closed = 1;
nodes = (
(229.333,297.667,o),
(188.667,291.333,o),
(148,282,c),
(71,340,l),
(76,353,l),
(104.667,350.333,o),
(133,349,o),
(161,349,cs),
(185.667,349,o),
(210,350,o),
(234,352,cs),
(418,364,o),
(572.333,376,o),
(697,388,cs),
(766.333,396,o),
(794,400.333,o),
(826,419,cs),
(828.667,420.333,o),
(830.667,420.5,o),
(832,419.5,cs),
(833.333,418.5,o),
(834.333,418,o),
(835,418,c),
(927,365,l),
(924,350,l),
(722,338,o),
(504,321.667,o),
(270,301,cs)
);
},
{
closed = 1;
nodes = (
(248,-42.333,o),
(359,67.167,o),
(411,242.5,cs),
(437,330.167,o),
(450,441.333,o),
(450,576,cs),
(450,662.667,o),
(446.333,712.333,o),
(409,755,c),
(420,767,l),
(532,687,l),
(526,660.333,o),
(523,634.667,o),
(523,610,cs),
(520.333,303.333,o),
(465,122.167,o),
(333,-2.5,cs),
(267,-64.833,o),
(175.333,-119.333,o),
(58,-166,c),
(44,-137,l),
(44,-137,l)
);
},
{
closed = 1;
nodes = (
(485.667,304,o),
(505.5,279,o),
(522.5,257,cs),
(539.5,235,o),
(554.333,216,o),
(567,200,cs),
(575.667,189.333,o),
(597.667,161.333,o),
(633,116,cs),
(668.333,70.667,o),
(698.667,34,o),
(724,6,cs),
(765.333,-40.667,o),
(801.5,-63.833,o),
(843.5,-76.5,cs),
(864.5,-82.833,o),
(893,-89.333,o),
(929,-96,c),
(929,-123,l),
(738,-136,ls),
(731.333,-136,o),
(726,-132.667,o),
(722,-126,cs),
(650,-3.333,o),
(549,148,o),
(449,272,c),
(463,332,l),
(463,332,l)
);
},
{
closed = 1;
nodes = (
(648.667,509.667,o),
(698,579.333,o),
(718,634,cs),
(727.333,662,o),
(732,685,o),
(732,703,cs),
(732,709.667,o),
(731.667,714.333,o),
(731,717,c),
(746,721,l),
(812,607,l),
(796,595,o),
(776,576,o),
(752,550,cs),
(710,506,o),
(661.333,464.333,o),
(606,425,c),
(586,447,l),
(586,447,l)
);
},
{
closed = 1;
nodes = (
(238,630.333,o),
(291.333,581,o),
(330,537,cs),
(332.667,534.333,o),
(334,530,o),
(334,524,cs),
(334,522,o),
(333.333,517.667,o),
(332,511,cs),
(304,413,l),
(288,412,l),
(252,518,o),
(206.667,603.333,o),
(152,668,c),
(170,685,l),
(170,685,l)
);
},
{
closed = 1;
nodes = (
(730,243.667,o),
(789.333,216,o),
(842,186,cs),
(847.333,182.667,o),
(850.667,174.333,o),
(852,161,cs),
(857,60,l),
(842,55,l),
(778,133.667,o),
(720,197.667,o),
(652,247,c),
(664,269,l),
(664,269,l)
);
}
);
width = 1000;
}
);
unicode = 101499;
}
{
glyphname = u18C88;
layers = (
{
layerId = master01;
shapes = (
{
closed = 1;
nodes = (
(228,543,o),
(194.333,469,o),
(153,409,c),
(137,408,l),
(96,481,l),
(94,486,l),
(94,489.333,o),
(96,492.333,o),
(100,495,cs),
(137.333,524.333,o),
(174.667,578.333,o),
(184,653,cs),
(184.667,657.667,o),
(185,665,o),
(185,675,cs),
(185,689,o),
(183.333,702.667,o),
(180,716,c),
(199,722,l),
(218.333,696.667,o),
(228,661,o),
(228,615,cs)
);
},
{
closed = 1;
nodes = (
(431.667,651.667,o),
(610.667,667,o),
(742,683,cs),
(779.333,687.667,o),
(810,699.333,o),
(834,718,cs),
(837.333,720.667,o),
(840.333,720.667,o),
(843,718,cs),
(909,645,ls),
(913,641,o),
(912.667,638,o),
(908,636,c),
(871,613,ls),
(853.667,603,o),
(813.667,550,o),
(751,454,c),
(727,464,l),
(789,622,l),
(794.333,632.667,o),
(794,636.333,o),
(786,635,cs),
(207,588,l),
(205,637,l),
(205,637,l)
);
},
{
closed = 1;
nodes = (
(171.667,129.667,o),
(289,306.667,o),
(317,416,cs),
(318.333,424,o),
(319,431.333,o),
(319,438,cs),
(319,461.333,o),
(315,481,o),
(307,497,c),
(320,508,l),
(409,406,l),
(401.667,396.667,o),
(389.333,377.667,o),
(372,349,cs),
(356,323,ls),
(289.333,208.333,o),
(175,71.667,o),
(51,-39,c),
(29,-17,l),
(29,-17,l)
);
},
{
closed = 1;
nodes = (
(676.333,341.333,o),
(758.333,217.667,o),
(805,155,cs),
(859.667,80.333,o),
(902.667,51.667,o),
(972,37,c),
(972,10,l),
(817,-1,l),
(815,-1,ls),
(808.333,-1,o),
(801.667,2.667,o),
(799,8,cs),
(755.667,99.333,o),
(678,238.667,o),
(566,426,cs),
(544.667,462,o),
(521,483.667,o),
(469,497,c),
(469,513,l),
(578,517,l),
(584.667,490.333,o),
(592.333,480,o),
(623,428,cs)
);
},
{
closed = 1;
nodes = (
(447,90.667,o),
(446.333,142.667,o),
(445,200,cs),
(443.667,236,o),
(432.667,277.667,o),
(410,315,c),
(422,326,l),
(520,241,l),
(514,215.667,o),
(510.667,181.333,o),
(510,138,cs),
(508.667,98,o),
(507.333,31.667,o),
(506,-61,c),
(446,-66,l),
(447,44,l),
(447,44,l)
);
},
{
closed = 1;
nodes = (
(301.667,-97.667,o),
(260.667,-103,o),
(220,-111,c),
(146,-53,l),
(152,-40,l),
(190,-44.667,o),
(226.333,-47,o),
(261,-47,cs),
(282.333,-47,o),
(298.333,-46.667,o),
(309,-46,cs),
(383,-42,ls),
(408.333,-40,o),
(435.333,-38.667,o),
(464,-38,cs),
(513,-35,ls),
(574.333,-31,o),
(615.333,-27.5,o),
(636,-24.5,cs),
(656.667,-21.5,o),
(674,-15.667,o),
(688,-7,c),
(691.333,-5.667,o),
(694.333,-6,o),
(697,-8,cs),
(788,-60,l),
(785,-75,l),
(555.667,-80.333,o),
(529.667,-81.667,o),
(343,-95,cs)
);
}
);
width = 1000;
}
);
unicode = 101512;
}
{
glyphname = u18C8B;
layers = (
{
layerId = master01;
shapes = (
{
closed = 1;
nodes = (
(249,536.667,o),
(216.667,459.333,o),
(174,406,c),
(158,405,l),
(117,478,l),
(115,483,l),
(115,486.333,o),
(117,489.333,o),
(121,492,cs),
(169,524,o),
(201,564.667,o),
(205,650,cs),
(206.333,674.667,o),
(204,696.667,o),
(198,716,c),
(217,722,l),
(238.333,694,o),
(249,656.667,o),
(249,610,cs)
);
},
{
closed = 1;
nodes = (
(375.333,648.333,o),
(583.667,666.333,o),
(721,681,cs),
(758.333,685.667,o),
(789,697.333,o),
(813,716,cs),
(816.333,718.667,o),
(819.333,718.667,o),
(822,716,cs),
(888,643,ls),
(892,639,o),
(891.667,636,o),
(887,634,c),
(850,611,ls),
(830,599,o),
(776.333,525.667,o),
(731,455,c),
(707,465,l),
(766,620,l),
(771.333,630.667,o),
(771,634.333,o),
(763,633,cs),
(224,590,l),
(222,639,l),
(222,639,l)
);
},
{
closed = 1;
nodes = (
(287,199.667,o),
(246.333,193.667,o),
(203,185,c),
(127,240,l),
(132,253,l),
(162.667,249.667,o),
(195.333,248,o),
(230,248,cs),
(243.333,248,o),
(263.333,248.667,o),
(290,250,cs),
(426,259,ls),
(544.667,267,o),
(623.667,273,o),
(663,277,cs),
(729.667,282.333,o),
(760,287.333,o),
(792,306,c),
(795.333,307.333,o),
(798.333,307.333,o),
(801,306,cs),
(892,256,l),
(889,241,l),
(642.333,226.333,o),
(454.333,213.667,o),
(325,203,cs)
);
},
{
closed = 1;
nodes = (
(462,-10.333,o),
(462.333,30.333,o),
(463,67,cs),
(464,332,ls),
(464,382,o),
(463.667,412,o),
(463,422,cs),
(461.667,460.667,o),
(446.333,510,o),
(417,542,c),
(428,554,l),
(536,468,l),
(529.333,439.333,o),
(526,405,o),
(526,365,cs),
(524,-48,l),
(462,-55,l),
(462,-55,l)
);
},
{
closed = 1;
nodes = (
(192.333,-94,o),
(151.333,-99.667,o),
(106,-109,c),
(29,-51,l),
(34,-38,l),
(64.667,-41.333,o),
(97.667,-43,o),
(133,-43,cs),
(147,-43,o),
(167.333,-42.333,o),
(194,-41,cs),
(419.333,-29,o),
(602.333,-16.667,o),
(743,-4,cs),
(811,2.667,o),
(841,6.333,o),
(873,25,cs),
(875.667,26.333,o),
(878.667,26,o),
(882,24,cs),
(974,-29,l),
(971,-44,l),
(713,-56.667,o),
(465.667,-72.667,o),
(229,-92,cs)
);
}
);
width = 1000;
}
);
unicode = 101515;
}
{
glyphname = u18C92;
layers = (
{
layerId = master01;
shapes = (
{
closed = 1;
nodes = (
(709,467,ls),
(709,484.333,o),
(708,488.333,o),
(696,487,cs),
(520,475,o),
(404.667,466.333,o),
(350,461,cs),
(318,457.667,o),
(284.667,451.667,o),
(250,443,c),
(173,499,l),
(178,512,l),
(203.333,508.667,o),
(232,507,o),
(264,507,cs),
(279.333,507,o),
(301,507.667,o),
(329,509,cs),
(477.667,519,o),
(584.333,527,o),
(649,533,cs),
(682.333,535.667,o),
(707.667,547.667,o),
(733,573,cs),
(736.333,576.333,o),
(740,576.333,o),
(744,573,cs),
(795,529,l),
(798.333,527,o),
(798.333,524,o),
(795,520,cs),
(776,496,ls),
(771.333,490.667,o),
(769,483.667,o),
(769,475,cs),
(762,232,l),
(702,227,l),
(707,387,l),
(707,387,l)
);
},
{
closed = 1;
nodes = (
(211.667,165.333,o),
(169.333,159.333,o),
(128,152,c),
(47,210,l),
(53,223,l),
(85.667,219.667,o),
(120,218,o),
(156,218,cs),
(184,218,o),
(204.667,218.333,o),
(218,219,cs),
(280.667,223,o),
(338,227,o),
(390,231,cs),
(442,235,o),
(491.333,238.667,o),
(538,242,cs),
(564,244.667,o),
(623,249.333,o),
(715,256,cs),
(783,261.333,o),
(819,268.667,o),
(855,286,cs),
(857,287.333,o),
(859.667,287,o),
(863,285,cs),
(960,233,l),
(957,219,l),
(930.333,217.667,o),
(911.333,216.333,o),
(900,215,cs),
(640,199,o),
(425,184,o),
(255,170,cs)
);
},
{
closed = 1;
nodes = (
(532.333,168.667,o),
(648.333,69.667,o),
(719,11,cs),
(803,-58.333,o),
(860.333,-85,o),
(959,-101,c),
(959,-130,l),
(777,-144,l),
(774,-144,ls),
(766.667,-144,o),
(760,-140.667,o),
(754,-134,cs),
(694,-62,o),
(531,109,o),
(447,185,c),
(491,210,l),
(491,210,l)
);
},
{
closed = 1;
nodes = (
(293.667,-47,o),
(392.5,75.833,o),
(422.5,244.5,cs),
(437.5,328.833,o),
(446.333,452.667,o),
(449,616,cs),
(450.333,662.667,o),
(438.333,719.667,o),
(405,757,c),
(416,769,l),
(527,683,l),
(522.333,667.667,o),
(519.333,644,o),
(518,612,cs),
(508.667,278.667,o),
(484.667,119.833,o),
(358,-11.5,cs),
(294.667,-77.167,o),
(196.333,-131,o),
(63,-173,c),
(51,-143,l),
(51,-143,l)
);
}
);
width = 1000;
}
);
unicode = 101522;
}
{
glyphname = u18C99;
layers = (
{
layerId = master01;
shapes = (
{
closed = 1;
nodes = (
(378.667,645.667,o),
(407.667,655.333,o),
(433,678,cs),
(435,680,o),
(437.333,679.333,o),
(440,676,cs),
(489,610,ls),
(491,607.333,o),
(490.333,604.333,o),
(487,601,cs),
(466,584,ls),
(461.333,580.667,o),
(458,577.167,o),
(456,573.5,cs),
(454,569.833,o),
(452.333,567,o),
(451,565,cs),
(337.667,386.333,o),
(225.667,278.667,o),
(47,168,c),
(30,194,l),
(183.333,306,o),
(295.667,427,o),
(381,575,cs),
(387.667,586.333,o),
(387.333,592,o),
(380,592,cs),
(354.667,590.667,o),
(308.667,587.667,o),
(282,585,cs),
(164.551,572.303,o),
(152.874,565.678,o),
(119,556,c),
(53,614,l),
(58,626,l),
(92.667,621.333,o),
(125,619.333,o),
(155,620,cs),
(189.667,621.333,o),
(284,632.333,o),
(332,639,cs)
);
},
{
closed = 1;
nodes = (
(305,274,o),
(301,239.667,o),
(301,201,cs),
(302,56,l),
(303,-3,l),
(462,203,l),
(489,185,l),
(322,-73,ls),
(310,-91,o),
(295,-118.333,o),
(277,-155,cs),
(275.667,-157.667,o),
(274,-159,o),
(272,-159,cs),
(270,-159,o),
(268,-158,o),
(266,-156,cs),
(212,-99,ls),
(207.333,-94.333,o),
(206.667,-90.333,o),
(210,-87,cs),
(228.667,-71,o),
(239,-41,o),
(239,-21,cs),
(239.667,1,o),
(240,39,o),
(240,93,cs),
(240,170.333,o),
(239.667,225.333,o),
(239,258,cs),
(239,285.333,o),
(234,311.667,o),
(224,337,c),
(250,356,l),
(313,304,l),
(313,304,l)
);
},
{
closed = 1;
nodes = (
(562.333,342.333,o),
(521.667,336,o),
(473,326,c),
(397,383,l),
(402,396,l),
(440.667,392.667,o),
(471.333,391,o),
(494,391,cs),
(516,391,o),
(538,392,o),
(560,394,cs),
(606.667,396.667,o),
(652.667,400,o),
(698,404,cs),
(731,407,ls),
(795,412.333,o),
(828.333,418,o),
(859,438,c),
(862.333,439.333,o),
(865.333,439,o),
(868,437,cs),
(960,385,l),
(957,370,l),
(809,363.333,o),
(760.333,359.667,o),
(595,345,cs)
);
},
{
closed = 1;
nodes = (
(599.886,211.236,o),
(664.025,485.64,o),
(669,615,cs),
(670.333,655,o),
(663.333,698.333,o),
(646,725,c),
(660,737,l),
(769,648,l),
(761,637.333,o),
(748,608,o),
(744,592,cs),
(702,432,ls),
(644.667,208.667,o),
(604,57.667,o),
(580,-21,c),
(882,24,l),
(889,-7,l),
(585,-83,ls),
(571.667,-86.333,o),
(552.333,-94.667,o),
(527,-108,cs),
(519.518,-111.741,o),
(520.131,-107.131,o),
(517,-104,c),
(468,-36,l),
(465.333,-30.667,o),
(465.667,-25.333,o),
(471,-24,cs),
(508.333,-15.333,o),
(530.667,0.333,o),
(538,23,cs)
);
},
{
closed = 1;
nodes = (
(834,152,o),
(895.667,63.333,o),
(941,-22,cs),
(943,-25.333,o),
(944,-28.333,o),
(944,-31,cs),
(944,-33.667,o),
(943,-37,o),
(941,-41,cs),
(895,-143,l),
(873,-143,l),
(849,-23,o),
(801.667,113.667,o),
(735,231,c),
(756,244,l),
(756,244,l)
);
}
);
width = 1000;
}
);
unicode = 101529;
}
{
glyphname = u18C9C;
layers = (
{
layerId = master01;
shapes = (
{
closed = 1;
nodes = (
(668.667,659,o),
(699,673,o),
(731,701,cs),
(734.333,704.333,o),
(737.667,704.333,o),
(741,701,cs),
(797,641,l),
(800.333,638.333,o),
(800.333,635.333,o),
(797,632,cs),
(776,610,ls),
(769.333,603.333,o),
(764.667,598,o),
(762,590,cs),
(679.333,332.667,o),
(554.667,149.833,o),
(368,14.5,cs),
(274.667,-53.167,o),
(162.333,-112,o),
(31,-162,c),
(14,-129,l),
(258,-18.333,o),
(427.833,109.167,o),
(544.5,284.5,cs),
(602.833,372.167,o),
(647.667,473.667,o),
(679,589,cs),
(679.667,591,o),
(680,593.667,o),
(680,597,cs),
(680,605,o),
(676,605.333,o),
(664,604,cs),
(481.333,589.333,o),
(298.333,567.667,o),
(225,553,c),
(150,609,l),
(156,621,l),
(178,617.667,o),
(205,616,o),
(237,616,cs),
(263.667,616,o),
(295.333,617.667,o),
(332,621,cs),
(610,651,l),
(610,651,l)
);
},
{
closed = 1;
nodes = (
(277.333,377.333,o),
(245.333,389.667,o),
(188,391,c),
(184,407,l),
(290,439,l),
(304,419.667,o),
(322,399,o),
(344,377,cs),
(486.667,243,o),
(581.333,155.333,o),
(628,114,cs),
(740,15.333,o),
(805.167,-27.667,o),
(860.5,-45,cs),
(888.167,-53.667,o),
(924.667,-61.333,o),
(970,-68,c),
(970,-96,l),
(760,-116,l),
(757,-116,ls),
(749,-116,o),
(743,-113.333,o),
(739,-108,cs),
(615,36,o),
(471.333,188,o),
(308,348,cs)
);
},
{
closed = 1;
nodes = (
(763.333,386.667,o),
(833,342.333,o),
(883,299,cs),
(889.667,293.667,o),
(891.333,289,o),
(890,281,cs),
(877,204,l),
(858,198,l),
(808.667,270,o),
(737.333,348,o),
(660,412,c),
(674,432,l),
(674,432,l)
);
}
);
width = 1000;
}
);
unicode = 101532;
}
{
glyphname = u18C9E;
layers = (
{
layerId = master01;
shapes = (
{
closed = 1;
nodes = (
(615.333,700,o),
(651,713.333,o),
(675,736,cs),
(679,740,o),
(682.667,740,o),
(686,736,cs),
(745,671,l),
(749,667.667,o),
(749,664,o),
(745,660,cs),
(724,643,ls),
(720,640.333,o),
(709.333,633.333,o),
(704,624,cs),
(553.333,370.667,o),
(358.667,204.667,o),
(60,106,c),
(46,139,l),
(326,256.333,o),
(508,420,o),
(624,632,cs),
(626.667,637.333,o),
(628,641.333,o),
(628,644,cs),
(628,648.667,o),
(623.667,650.333,o),
(615,649,cs),
(560.333,645.667,o),
(473,638.333,o),
(353,627,cs),
(309,624.333,o),
(268.667,617,o),
(230,609,c),
(153,666,l),
(158,679,l),
(188,677,o),
(215,676,o),
(239,676,cs),
(257,676,o),
(283.333,676.667,o),
(318,678,cs),
(352.667,679.333,o),
(420,684,o),
(520,692,cs),
(568,696,l),
(568,696,l)
);
},
{
closed = 1;
nodes = (
(469.333,-14.667,o),
(470,25.667,o),
(470,49,cs),
(469,120,ls),
(467.667,157.333,o),
(457.667,193.333,o),
(439,228,c),
(454,239,l),
(539,166,l),
(533,140.667,o),
(529.667,106.333,o),
(529,63,cs),
(527.667,15,o),
(527,-28.333,o),
(527,-67,c),
(468,-72,l),
(468,-72,l)
);
},
{
closed = 1;
nodes = (
(238.667,-110.667,o),
(197.667,-116,o),
(157,-124,c),
(83,-66,l),
(89,-53,l),
(127,-57.667,o),
(163.333,-60,o),
(198,-60,cs),
(219.333,-60,o),
(235.333,-59.667,o),
(246,-59,cs),
(401,-51,l),
(491,-46,ls),
(646.851,-39.104,o),
(741.842,-32.412,o),
(776,-26.5,cs),
(793.333,-23.5,o),
(807.333,-18.667,o),
(818,-12,c),
(821.333,-10.667,o),
(824.333,-11,o),
(827,-13,cs),
(918,-68,l),
(915,-83,l),
(898.333,-83,o),
(885.667,-83.333,o),
(877,-84,cs),
(609,-88,o),
(521.333,-90.667,o),
(280,-108,cs)
);
},
{
closed = 1;
nodes = (
(310.333,465,o),
(283.667,473,o),
(255,473,cs),
(243,473,o),
(227.667,471.333,o),
(209,468,c),
(203,480,l),
(301,538,l),
(318.333,520.667,o),
(340,503.667,o),
(366,487,cs),
(420,452.333,o),
(494.333,406.667,o),
(589,350,cs),
(702.333,282,o),
(771.667,251.333,o),
(837,238,cs),
(869.667,231.333,o),
(909.333,226.667,o),
(956,224,c),
(957,194,l),
(750,162,l),
(746,162,ls),
(738.667,162,o),
(732.667,164,o),
(728,168,cs),
(616,257.333,o),
(467,363.667,o),
(335,449,cs)
);
},
{
closed = 1;
nodes = (
(704.333,524.667,o),
(774,480.333,o),
(824,437,cs),
(830.667,431.667,o),
(832.333,427,o),
(831,419,cs),
(818,342,l),
(799,336,l),
(749.667,408,o),
(678.333,486,o),
(601,550,c),
(615,570,l),
(615,570,l)
);
}
);
width = 1000;
}
);
unicode = 101534;
}
{
glyphname = u18CB8;
layers = (
{
layerId = master01;
shapes = (
{
closed = 1;
nodes = (
(657,622,o),
(654.667,625,o),
(650,625,cs),
(568.667,620.333,o),
(443.333,609.333,o),
(274,592,cs),
(240,588,o),
(206.333,582.667,o),
(173,576,c),
(97,633,l),
(102,646,l),
(133.333,642.667,o),
(161,641,o),
(185,641,cs),
(192.333,641,o),
(217,642,o),
(259,644,cs),
(568,669,ls),
(626.667,675.667,o),
(661,684.333,o),
(693,711,cs),
(696.333,714.333,o),
(699.333,714.333,o),
(702,711,cs),
(758,653,ls),
(760.667,650.333,o),
(760.333,647.333,o),
(757,644,cs),
(733,623,ls),
(732.333,622.333,o),
(730.667,620.667,o),
(728,618,cs),
(725.333,615.333,o),
(723.667,611.333,o),
(723,606,cs),
(721.667,575.333,o),
(721,553,o),
(721,539,cs),
(721,353.667,o),
(772.333,247.333,o),
(863,206,cs),
(865.667,204.667,o),
(869,204,o),
(873,204,cs),
(881.667,204,o),
(887,212,o),
(889,228,cs),
(916,400,l),
(940,396,l),
(936.667,346,o),
(935,301.667,o),
(935,263,cs),
(935,207.667,o),
(938.333,162,o),
(945,126,c),
(945,123,ls),
(945,119,o),
(943,116.333,o),
(939,115,cs),
(935.667,114.333,o),
(930.333,114,o),
(923,114,cs),
(895,114,o),
(864.667,122,o),
(832,138,cs),
(720,192.667,o),
(656,330,o),
(656,558,cs),
(656,583.333,o),
(656.333,602.667,o),
(657,616,cs)
);
},
{
closed = 1;
nodes = (
(241.333,170,o),
(199.333,163.667,o),
(152,155,c),
(71,213,l),
(76,226,l),
(106,222.667,o),
(138.333,221,o),
(173,221,cs),
(189,221,o),
(211.667,221.667,o),
(241,223,cs),
(408,236,ls),
(476,241.333,o),
(512.333,248.333,o),
(547,267,cs),
(549,268.333,o),
(551.667,268,o),
(555,266,cs),
(652,213,l),
(649,199,l),
(625,198,ls),
(611,197.333,o),
(568.833,195,o),
(498.5,191,cs),
(428.167,187,o),
(354.667,181.333,o),
(278,174,cs)
);
},
{
closed = 1;
nodes = (
(398,405.667,o),
(394.667,371.333,o),
(394,328,cs),
(391.333,169.333,o),
(390,45.333,o),
(390,-44,cs),
(391,-154,l),
(378,-160,l),
(316,-92,ls),
(314.667,-90.667,o),
(314.667,-87.667,o),
(316,-83,cs),
(324,-65,o),
(328.667,-43.333,o),
(330,-18,cs),
(334,60.667,o),
(336,154.667,o),
(336,264,cs),
(336,298,o),
(335.333,338.333,o),
(334,385,cs),
(332.667,426.333,o),
(320.333,473,o),
(291,505,c),
(302,517,l),
(404,431,l),
(404,431,l)
);
}
);
width = 1000;
}
);
unicode = 101560;
}
{
glyphname = u18CC6;
layers = (
{
layerId = master01;
shapes = (
{
closed = 1;
nodes = (
(367.667,490,o),
(434,493.833,o),
(508,499.5,cs),
(582,505.167,o),
(629,508.667,o),
(649,510,cs),
(687,513,ls),
(755,519.667,o),
(785,523.333,o),
(817,542,c),
(820.333,543.333,o),
(823.333,543,o),
(826,541,cs),
(918,485,l),
(915,470,l),
(687,460.667,o),
(579.667,453.333,o),
(345,436,cs),
(311.667,433.333,o),
(290.667,428.667,o),
(282,422,cs),
(251,399,ls),
(246.333,395.667,o),
(243,395.667,o),
(241,399,cs),
(196,462,ls),
(193.333,466,o),
(193.333,469.333,o),
(196,472,c),
(222.667,491.333,o),
(240.333,519.333,o),
(249,556,cs),
(251.667,567.333,o),
(254,579.333,o),
(256,592,cs),
(256.667,595.333,o),
(257,600.667,o),
(257,608,cs),
(257,641.333,o),
(244.667,687,o),
(226,715,c),
(239,725,l),
(339,622,l),
(324,597,o),
(314.62,581.955,o),
(299,498,cs),
(298,493,ls),
(298,486.976,o),
(304.479,488,o),
(309,488,cs)
);
},
{
closed = 1;
nodes = (
(308,-36,o),
(438.667,92.833,o),
(492,265.5,cs),
(518.667,351.833,o),
(534.667,463,o),
(540,599,cs),
(541.333,651,o),
(531,714,o),
(499,750,c),
(510,762,l),
(625,676,l),
(620.333,660.667,o),
(616.667,637,o),
(614,605,cs),
(591.333,295.667,o),
(545.5,132,o),
(391.5,0,cs),
(314.5,-66,o),
(200.667,-123.667,o),
(50,-173,c),
(36,-144,l),
(36,-144,l)
);
},
{
closed = 1;
nodes = (
(233.667,261.667,o),
(207.333,270,o),
(166,270,cs),
(152.667,270,o),
(142.333,269.667,o),
(135,269,c),
(130,286,l),
(231,332,l),
(245,318,o),
(265.333,300,o),
(292,278,c),
(411,190,ls),
(497.667,126.667,o),
(560,81.333,o),
(598,54,cs),
(716.667,-28.667,o),
(780,-62.333,o),
(836,-77,cs),
(864,-84.333,o),
(900,-90.333,o),
(944,-95,c),
(944,-122,l),
(754,-149,l),
(750,-149,ls),
(743.333,-149,o),
(737.333,-147,o),
(732,-143,cs),
(619.333,-41.667,o),
(461.667,87,o),
(259,243,cs)
);
},
{
closed = 1;
nodes = (
(780.667,320,o),
(847,277.667,o),
(899,231,c),
(903,228.333,o),
(904.333,224.333,o),
(903,219,c),
(891,102,l),
(876,98,l),
(818.667,198,o),
(748.667,283.667,o),
(666,355,c),
(682,376,l),
(682,376,l)
);
}
);
width = 1000;
}
);
unicode = 101574;
}
{
glyphname = .notdef;
layers = (
{
layerId = master01;
shapes = (
{
closed = 1;
nodes = (
(93,-200,l),
(93,800,l),
(410,800,l),
(410,-200,l),
(410,-200,l)
);
},
{
closed = 1;
nodes = (
(267,700,l),
(333,700,l),
(333,733,l),
(168,733,l),
(168,700,l),
(233,700,l),
(233,663,l),
(167,663,l),
(167,630,l),
(333,630,l),
(333,663,l),
(267,663,l),
(267,663,l)
);
},
{
closed = 1;
nodes = (
(333,534,l),
(267,534,l),
(267,604,l),
(167,604,l),
(167,500,l),
(333,500,l),
(333,500,l)
);
},
{
closed = 1;
nodes = (
(200,534,l),
(200,570,l),
(233,570,l),
(233,534,l),
(233,534,l)
);
},
{
closed = 1;
nodes = (
(267,440,l),
(333,440,l),
(333,473,l),
(167,473,l),
(167,440,l),
(233,440,l),
(233,403,l),
(167,403,l),
(167,370,l),
(267,370,l),
(267,370,l)
);
},
{
closed = 1;
nodes = (
(167,313,l),
(333,313,l),
(333,413,l),
(300,413,l),
(300,347,l),
(167,347,l),
(167,347,l)
);
},
{
closed = 1;
nodes = (
(167,178,l),
(333,178,l),
(333,291,l),
(233,291,l),
(233,235,l),
(267,235,l),
(267,258,l),
(300,258,l),
(300,211,l),
(200,211,l),
(200,291,l),
(167,291,l),
(167,291,l)
);
},
{
closed = 1;
nodes = (
(167,5,l),
(333,5,l),
(333,118,l),
(167,118,l),
(167,118,l)
);
},
{
closed = 1;
nodes = (
(200,38,l),
(200,85,l),
(300,85,l),
(300,38,l),
(300,38,l)
);
},
{
closed = 1;
nodes = (
(301,-51,l),
(333,-51,l),
(333,-18,l),
(167,-18,l),
(167,-51,l),
(237,-51,l),
(167,-98,l),
(167,-131,l),
(333,-131,l),
(333,-98,l),
(231,-98,l),
(231,-98,l)
);
}
);
width = 500;
}
);
}
{
glyphname = u18C37_u18BDF_u18C64;
layers = (
{
layerId = master01;
shapes = (
{
closed = 1;
nodes = (
(173,395.333,o),
(271.667,535,o),
(325,659,c),
(334.333,689.667,o),
(339,715,o),
(339,735,cs),
(339,744.333,o),
(338,754,o),
(336,764,c),
(348,768,l),
(420,665,l),
(403.333,649,o),
(389,630.333,o),
(377,609,cs),
(298.333,475.667,o),
(188.333,346.667,o),
(79,260,c),
(57,282,l),
(57,282,l)
);
},
{
closed = 1;
nodes = (
(398,364.667,o),
(394.667,330.333,o),
(394,287,cs),
(391.333,140.333,o),
(390,25.667,o),
(390,-57,cs),
(391,-159,l),
(378,-165,l),
(316,-97,ls),
(314.667,-95.667,o),
(314.667,-92.667,o),
(316,-88,cs),
(324,-70,o),
(328.667,-48.333,o),
(330,-23,cs),
(334,49,o),
(336,134.667,o),
(336,234,cs),
(336,264.667,o),
(335.333,301.333,o),
(334,344,cs),
(332.667,380,o),
(324,423,o),
(304,451,c),
(315,463,l),
(404,390,l),
(404,390,l)
);
},
{
closed = 1;
nodes = (
(801,394.333,o),
(871,533,o),
(903,657,cs),
(907.667,677,o),
(910,694,o),
(910,708,cs),
(910,726.667,o),
(907,744,o),
(901,760,c),
(912,767,l),
(997,674,l),
(983,654.667,o),
(971.333,634.333,o),
(962,613,cs),
(908.667,482.333,o),
(825.333,352.333,o),
(736,251,c),
(709,269,l),
(709,269,l)
);
},
{
closed = 1;
nodes = (
(887.333,534.333,o),
(901,534,o),
(919,534,cs),
(971,534,o),
(1026.667,538.667,o),
(1052,544,cs),
(1086.667,550.667,o),
(1108,556.667,o),
(1136,590,cs),
(1140,594.667,o),
(1144,595,o),
(1148,591,cs),
(1208,533,ls),
(1212,529,o),
(1211,527.333,o),
(1207,522,cs),
(1190,501,ls),
(1187.333,497.667,o),
(1183.667,491,o),
(1179,481,cs),
(1076.333,219.667,o),
(918.333,8.333,o),
(709,-145,c),
(687,-118,l),
(884.333,46,o),
(1038,272.333,o),
(1110,495,cs),
(1111,498,l),
(1111,501.333,o),
(1108.333,503,o),
(1103,503,cs),
(1060.333,500.333,o),
(955,487.333,o),
(927,478,c),
(876,515,l),
(878,535,l),
(878,535,l)
);
},
{
closed = 1;
nodes = (
(1440,668.333,o),
(1490.667,617.667,o),
(1542,561,c),
(1544,557,o),
(1544.333,552,o),
(1543,546,cs),
(1519,457,l),
(1501,457,l),
(1470.333,546.333,o),
(1434.667,626.667,o),
(1376,700,c),
(1390,713,l),
(1390,713,l)
);
},
{
closed = 1;
nodes = (
(1644,482,o),
(1702.667,605,o),
(1720,677,cs),
(1722.667,689.667,o),
(1724,701.667,o),
(1724,713,cs),
(1724,729,o),
(1721.333,745,o),
(1716,761,c),
(1729,768,l),
(1807,660,l),
(1794.333,647.333,o),
(1779.667,627.333,o),
(1763,600,cs),
(1705,502.667,o),
(1653.667,426.667,o),
(1609,372,c),
(1584,390,l),
(1584,390,l)
);
},
{
closed = 1;
nodes = (
(1569.667,184,o),
(1472,-11,o),
(1332,-151,c),
(1308,-127,l),
(1429.333,9,o),
(1509,182.333,o),
(1541,377,c),
(1611,372,l),
(1611,372,l)
);
},
{
closed = 1;
nodes = (
(215,115,o),
(174.333,109,o),
(127,99,c),
(51,152,l),
(56,165,l),
(94,161,o),
(127.333,159,o),
(156,159,cs),
(169.333,159,o),
(188.667,159.667,o),
(214,161,cs),
(286,165.667,o),
(360.667,171.333,o),
(438,178,cs),
(506,184.667,o),
(535.667,188.333,o),
(569,207,cs),
(572.333,208.333,o),
(575.333,208.333,o),
(578,207,cs),
(668,160,l),
(665,145,l),
(518.333,137,o),
(379.667,127.667,o),
(249,117,cs)
);
},
{
closed = 1;
nodes = (
(1439.333,336,o),
(1398.667,329.333,o),
(1366,322,c),
(1290,372,l),
(1296,386,l),
(1338.667,383.333,o),
(1365.667,382,o),
(1377,382,cs),
(1390.333,382,o),
(1415.667,383.333,o),
(1453,386,cs),
(1477.667,388,o),
(1532.333,393.333,o),
(1617,402,cs),
(1661,406,ls),
(1738.333,414,o),
(1760.667,420,o),
(1790,440,c),
(1793.333,441.333,o),
(1796.333,441,o),
(1799,439,c),
(1892,392,l),
(1889,377,l),
(1718.333,365.667,o),
(1584.667,354,o),
(1488,342,cs)
);
},
{
closed = 1;
nodes = (
(1688,247.667,o),
(1738.667,136.333,o),
(1784,51,cs),
(1820,-18.333,o),
(1839.333,-44.5,o),
(1874,-62.5,cs),
(1891.333,-71.5,o),
(1916.667,-79.333,o),
(1950,-86,c),
(1949,-113,l),
(1795,-117,ls),
(1788.333,-117,o),
(1783.667,-114.667,o),
(1781,-110,cs),
(1734.333,-15.333,o),
(1662.333,173.667,o),
(1593,375,c),
(1616,384,l),
(1632,385,l),
(1632,385,l)
);
},
{
closed = 1;
nodes = (
(958.333,250.333,o),
(1049.333,132.667,o),
(1110,58,cs),
(1166,-11.333,o),
(1187.167,-33.167,o),
(1222.5,-48.5,cs),
(1240.167,-56.167,o),
(1264.667,-62,o),
(1296,-66,c),
(1296,-93,l),
(1153,-104,l),
(1150,-104,ls),
(1144,-104,o),
(1140,-102,o),
(1138,-98,c),
(1045.333,32.667,o),
(936.667,191.667,o),
(812,379,c),
(824,416,l),
(837,411,l),
(837,411,l)
);
},
{
closed = 1;
nodes = (
(417.667,594,o),
(466.667,531,o),
(524,461,cs),
(581.333,395.667,o),
(618.667,372.667,o),
(676,362,c),
(675,336,l),
(554,320,l),
(552,320,ls),
(546,320,o),
(541,322.667,o),
(537,328,cs),
(459.667,450,o),
(397.333,545.333,o),
(350,614,c),
(377,650,l),
(377,650,l)
);
}
);
width = 2000;
}
);
}
{
glyphname = u18C5B_u18CD1.011;
layers = (
{
layerId = master01;
shapes = (
{
closed = 1;
nodes = (
(770,400.667,o),
(773,100,o),
(777,-4,cs),
(778.333,-28,o),
(777.333,-49.667,o),
(774,-69,cs),
(766,-113,o),
(758,-132,o),
(742,-156,cs),
(737.333,-164,o),
(733,-168,o),
(729,-168,cs),
(725.667,-168,o),
(721.667,-165.667,o),
(717,-161,cs),
(661,-109.667,o),
(591,-61.333,o),
(507,-16,c),
(520,9,l),
(690,-55,ls),
(692,-55.667,o),
(694.333,-56,o),
(697,-56,cs),
(705,-56,o),
(707.667,-50,o),
(709,-38,cs),
(711.667,-8,o),
(713,61.667,o),
(713,171,cs),
(713,344.333,o),
(710.667,560.333,o),
(708,623,cs),
(706.667,665.667,o),
(692,726,o),
(664,758,c),
(676,770,l),
(779,684,l),
(773,652.667,o),
(770,618.667,o),
(770,582,cs)
);
},
{
closed = 1;
nodes = (
(363,562.667,o),
(429.667,490.333,o),
(473,433,cs),
(475,431,o),
(476,427.667,o),
(476,423,cs),
(476,419.667,o),
(475,414.333,o),
(473,407,cs),
(443,298,l),
(426,298,l),
(394,402,o),
(322.667,543.333,o),
(252,634,c),
(273,650,l),
(273,650,l)
);
},
{
closed = 1;
nodes = (
(962,467,l),
(349,43,ls),
(316.333,20.333,o),
(285.667,-4.333,o),
(257,-31,c),
(151,10,l),
(150,24,l),
(198.667,40,o),
(242.333,60,o),
(281,84,cs),
(944,497,l),
(944,497,l)
);
},
{
closed = 1;
nodes = (
(1164,603,o),
(1269.333,664,o),
(1300,696,cs),
(1318.667,716,o),
(1322,734.333,o),
(1322,761,c),
(1340,768,l),
(1404,675,l),
(1392.667,670.333,o),
(1374.667,662,o),
(1350,650,cs),
(1298,624.667,o),
(1210,578.333,o),
(1178,561,cs),
(1137,539,l),
(1625,579,l),
(1637,545,l),
(1146,489,ls),
(1130,487.667,o),
(1113.333,483.333,o),
(1096,476,cs),
(1078.667,468.667,o),
(1068,464.333,o),
(1064,463,cs),
(1061,462,l),
(1059,462,o),
(1057.333,462.833,o),
(1056,464.5,cs),
(1054.667,466.167,o),
(1053.667,467.333,o),
(1053,468,c),
(1016,540,l),
(1015.333,540.667,o),
(1015,542,o),
(1015,544,cs),
(1015,548.667,o),
(1017,551.333,o),
(1021,552,cs),
(1049,554.667,o),
(1074,561,o),
(1096,571,cs)
);
},
{
closed = 1;
nodes = (
(1590,647,o),
(1650,610,o),
(1702,566,cs),
(1706,562.667,o),
(1708,557.333,o),
(1708,550,cs),
(1709,459,l),
(1690,451,l),
(1628.667,535,o),
(1553.667,616,o),
(1465,694,c),
(1478,711,l),
(1478,711,l)
);
},
{
closed = 1;
nodes = (
(1472.667,507,o),
(1589.667,396.667,o),
(1643,350,cs),
(1719,283.333,o),
(1770,257.333,o),
(1850,244,c),
(1850,220,l),
(1703,203,l),
(1700,203,ls),
(1692.667,203,o),
(1686,206.333,o),
(1680,213,cs),
(1399,533,l),
(1426,555,l),
(1426,555,l)
);
},
{
closed = 1;
nodes = (
(1029.556,244.513,o),
(1172.576,369.162,o),
(1210,449,cs),
(1216.667,462.333,o),
(1220,477.667,o),
(1220,495,cs),
(1220,503,o),
(1219.333,509,o),
(1218,513,c),
(1233,519,l),
(1291,429,l),
(1265,403,l),
(1222,362,ls),
(1124.667,271.333,o),
(1018.333,193.667,o),
(881,127,c),
(866,153,l),
(866,153,l)
);
},
{
closed = 1;
nodes = (
(1400.333,294,o),
(1397,265.333,o),
(1397,240,cs),
(1396.333,224.667,o),
(1396,200.667,o),
(1396,168,cs),
(1396,118,o),
(1397.333,56.333,o),
(1400,-17,cs),
(1402.667,-74.333,o),
(1393.667,-120,o),
(1359,-156,cs),
(1355,-160.667,o),
(1350.333,-161,o),
(1345,-157,cs),
(1293.667,-111,o),
(1243.333,-72.333,o),
(1194,-41,c),
(1205,-20,l),
(1319,-63,ls),
(1320.333,-63.667,o),
(1322.333,-64,o),
(1325,-64,cs),
(1330.333,-64,o),
(1334,-60,o),
(1336,-52,cs),
(1339.333,-37.333,o),
(1341,13.667,o),
(1341,101,cs),
(1341,197.667,o),
(1340.333,249.333,o),
(1339,256,c),
(1336.333,314.667,o),
(1331.667,351,o),
(1317,379,c),
(1330,390,l),
(1407,326,l),
(1407,326,l)
);
},
{
closed = 1;
nodes = (
(1238.333,160,o),
(1197.667,153.333,o),
(1165,146,c),
(1089,196,l),
(1095,210,l),
(1123,208,o),
(1147,207,o),
(1167,207,cs),
(1192.333,207,o),
(1220.667,208,o),
(1252,210,cs),
(1287.333,212,o),
(1329.667,215.667,o),
(1379,221,cs),
(1456.333,229,o),
(1481.667,235.333,o),
(1515,258,c),
(1518.333,259.333,o),
(1521.333,259,o),
(1524,257,c),
(1617,210,l),
(1614,195,l),
(1482.667,186.333,o),
(1373.667,176.667,o),
(1287,166,cs)
);
},
{
closed = 1;
nodes = (
(1571.333,76,o),
(1625.333,28.667,o),
(1666,-12,cs),
(1671.333,-17.333,o),
(1673,-23.333,o),
(1671,-30,cs),
(1653,-123,l),
(1631,-126,l),
(1596.333,-47.333,o),
(1545.667,40.667,o),
(1487,114,c),
(1504,130,l),
(1504,130,l)
);
},
{
closed = 1;
nodes = (
(1149,-22.333,o),
(1096.333,-88.333,o),
(1059,-123,c),
(1042,-120,l),
(1018,-39,ls),
(1017.333,-36.333,o),
(1018.667,-34.333,o),
(1022,-33,c),
(1041.333,-29,o),
(1055.667,-24,o),
(1065,-18,cs),
(1102.333,7.333,o),
(1145.667,56.667,o),
(1147,110,c),
(1166,110,l),
(1170,88,o),
(1172,69.667,o),
(1172,55,cs),
(1172,41.667,o),
(1169.667,28.333,o),
(1165,15,cs)
);
}
);
width = 2000;
}
);
}
